<svg width="31" height="31" viewBox="0 0 31 31" fill="none" xmlns="http://www.w3.org/2000/svg">
<path d="M8.525 21.7C9.14163 21.7 9.733 21.455 10.169 21.019C10.605 20.583 10.85 19.9916 10.85 19.375C10.8576 19.2977 10.8576 19.2198 10.85 19.1425L15.1745 14.818H15.531H15.8875L18.383 17.3135C18.383 17.3135 18.383 17.391 18.383 17.4375C18.383 18.0541 18.628 18.6455 19.064 19.0815C19.5 19.5175 20.0914 19.7625 20.708 19.7625C21.3246 19.7625 21.916 19.5175 22.352 19.0815C22.788 18.6455 23.033 18.0541 23.033 17.4375V17.3135L28.675 11.625C29.1348 11.625 29.5844 11.4886 29.9667 11.2332C30.349 10.9777 30.647 10.6146 30.823 10.1897C30.999 9.7649 31.045 9.29742 30.9553 8.84641C30.8656 8.39541 30.6442 7.98113 30.319 7.65598C29.9939 7.33082 29.5796 7.10938 29.1286 7.01967C28.6776 6.92996 28.2101 6.97601 27.7853 7.15198C27.3604 7.32795 26.9973 7.62595 26.7418 8.0083C26.4864 8.39064 26.35 8.84016 26.35 9.3C26.3424 9.37732 26.3424 9.45518 26.35 9.5325L20.7545 15.128H20.5065L17.825 12.4C17.825 11.7834 17.58 11.192 17.144 10.756C16.708 10.32 16.1166 10.075 15.5 10.075C14.8834 10.075 14.292 10.32 13.856 10.756C13.42 11.192 13.175 11.7834 13.175 12.4L8.525 17.05C7.90837 17.05 7.317 17.295 6.88098 17.731C6.44495 18.167 6.2 18.7584 6.2 19.375C6.2 19.9916 6.44495 20.583 6.88098 21.019C7.317 21.455 7.90837 21.7 8.525 21.7ZM29.45 27.9H3.1V1.55C3.1 1.13891 2.9367 0.744666 2.64602 0.453984C2.35533 0.163303 1.96109 0 1.55 0C1.13891 0 0.744666 0.163303 0.453984 0.453984C0.163303 0.744666 0 1.13891 0 1.55V29.45C0 29.8611 0.163303 30.2553 0.453984 30.546C0.744666 30.8367 1.13891 31 1.55 31H29.45C29.8611 31 30.2553 30.8367 30.546 30.546C30.8367 30.2553 31 29.8611 31 29.45C31 29.0389 30.8367 28.6447 30.546 28.354C30.2553 28.0633 29.8611 27.9 29.45 27.9Z" fill="white"/>
</svg>
