<svg width="34" height="33" viewBox="0 0 34 33" fill="none" xmlns="http://www.w3.org/2000/svg">
<path d="M29.9453 2.91896C27.749 2.91896 25.9469 4.72104 25.9469 6.91733C25.9469 7.25522 26.0033 7.53679 26.0596 7.81837L22.2865 10.2962C21.1038 8.94467 19.4144 8.04363 17.4434 8.04363C15.9792 8.04363 14.6276 8.55047 13.5576 9.39519L7.36296 5.11525C7.75717 3.48211 6.91244 1.68003 5.33562 0.947929C3.47722 0.103203 1.28093 0.891614 0.436207 2.6937C-0.408519 4.49578 0.379892 6.74838 2.18198 7.59311C3.13933 8.04363 4.20932 8.04363 5.16667 7.64943L11.5303 12.0983C11.2487 12.7741 11.0798 13.5625 11.0798 14.3509C11.0798 14.8014 11.1361 15.1956 11.1924 15.6462L7.30665 17.054C6.79981 16.4909 6.12403 16.0404 5.27931 15.8151C3.08302 15.1956 0.774098 16.4909 0.154632 18.7435C-0.464834 20.9398 0.830413 23.2487 3.08302 23.8682C5.27931 24.4876 7.58822 23.1924 8.20769 20.9398C8.264 20.7145 8.32032 20.4893 8.32032 20.264L12.7692 18.6872C13.9518 19.9261 15.585 20.7145 17.387 20.7145H17.8939L18.5133 23.8682C17.3307 24.8255 16.655 26.346 16.8239 27.9229C17.0492 30.5134 19.3581 32.3717 21.9486 32.1465C24.5391 31.9212 26.3975 29.6123 26.1722 27.0218C25.9469 24.7129 24.0885 22.9671 21.8359 22.7982L21.1602 19.4756C22.737 18.3493 23.807 16.4346 23.807 14.3509C23.807 14.013 23.7507 13.6751 23.7507 13.3936L28.1995 10.4652C28.7627 10.7468 29.3822 10.9157 30.0016 10.9157C32.1979 10.9157 34 9.11362 34 6.91733C33.9437 4.72104 32.1416 2.91896 29.9453 2.91896ZM17.4434 18.4619C15.1908 18.4619 13.3887 16.6598 13.3887 14.4072C13.3887 12.1546 15.1908 10.3525 17.4434 10.3525C19.696 10.3525 21.4981 12.1546 21.4981 14.4072C21.4981 16.6035 19.696 18.4619 17.4434 18.4619Z" fill="white"/>
<path d="M17.4998 16.2093C18.4951 16.2093 19.3019 15.4025 19.3019 14.4072C19.3019 13.412 18.4951 12.6052 17.4998 12.6052C16.5046 12.6052 15.6978 13.412 15.6978 14.4072C15.6978 15.4025 16.5046 16.2093 17.4998 16.2093Z" fill="white"/>
</svg>
