<svg width="87" height="77" viewBox="0 0 87 77" fill="none" xmlns="http://www.w3.org/2000/svg">
<path d="M72.5207 48.3392C69.5578 48.3429 66.6686 49.258 64.2495 50.9589C61.8304 52.6598 59.9999 55.0633 59.0092 57.8394H21.5577C18.601 57.8394 15.7655 56.6717 13.6748 54.5931C11.5841 52.5146 10.4096 49.6954 10.4096 46.7559C10.4096 43.8163 11.5841 40.9972 13.6748 38.9186C15.7655 36.84 18.601 35.6723 21.5577 35.6723H59.7799C64.4261 35.6723 68.882 33.8373 72.1674 30.5709C75.4527 27.3046 77.2984 22.8745 77.2984 18.2552C77.2984 13.6359 75.4527 9.20581 72.1674 5.93948C68.882 2.67314 64.4261 0.838135 59.7799 0.838135H21.5577C20.2906 0.838135 19.0753 1.33859 18.1793 2.22941C17.2833 3.12023 16.7799 4.32844 16.7799 5.58824C16.7799 6.84805 17.2833 8.05626 18.1793 8.94708C19.0753 9.8379 20.2906 10.3384 21.5577 10.3384H59.7799C61.8918 10.3384 63.9172 11.1724 65.4106 12.6571C66.9039 14.1418 67.7429 16.1555 67.7429 18.2552C67.7429 20.3549 66.9039 22.3686 65.4106 23.8533C63.9172 25.338 61.8918 26.1721 59.7799 26.1721H21.5577C16.0667 26.1721 10.8007 28.3407 6.91798 32.2009C3.03528 36.0611 0.854004 41.2967 0.854004 46.7559C0.854004 52.215 3.03528 57.4506 6.91798 61.3108C10.8007 65.171 16.0667 67.3397 21.5577 67.3397H59.0092C59.8853 69.8026 61.4255 71.9786 63.4615 73.63C65.4975 75.2813 67.9509 76.3445 70.5536 76.7032C73.1563 77.0619 75.8081 76.7023 78.2191 75.6638C80.6302 74.6253 82.7077 72.9478 84.2246 70.8147C85.7414 68.6816 86.6393 66.175 86.82 63.5688C87.0008 60.9627 86.4574 58.3572 85.2494 56.0373C84.0413 53.7174 82.215 51.7724 79.9702 50.4147C77.7253 49.0571 75.1482 48.3391 72.5207 48.3392ZM72.5207 67.3397C71.5757 67.3397 70.652 67.0611 69.8663 66.5391C69.0806 66.0172 68.4682 65.2753 68.1066 64.4073C67.745 63.5394 67.6503 62.5843 67.8347 61.6629C68.019 60.7414 68.4741 59.895 69.1423 59.2307C69.8105 58.5664 70.6618 58.114 71.5886 57.9307C72.5154 57.7474 73.476 57.8415 74.349 58.201C75.2221 58.5606 75.9683 59.1694 76.4932 59.9505C77.0182 60.7317 77.2984 61.6501 77.2984 62.5896C77.2971 63.8489 76.7932 65.0563 75.8975 65.9469C75.0018 66.8374 73.7874 67.3383 72.5207 67.3397Z" fill="#6D82EC"/>
</svg>
