<svg width="54" height="77" viewBox="0 0 54 77" fill="none" xmlns="http://www.w3.org/2000/svg">
<path d="M26.854 12.7134C18.8829 12.7134 12.3995 19.1052 12.3995 26.9636C12.3995 28.2759 13.4775 29.3387 14.8085 29.3387C16.1396 29.3387 17.2176 28.2759 17.2176 26.9636C17.2176 21.7237 21.542 17.4635 26.854 17.4635C28.185 17.4635 29.2631 16.4006 29.2631 15.0884C29.2631 13.7762 28.185 12.7134 26.854 12.7134ZM14.8176 68.9975C14.8176 69.4651 14.9576 69.9208 15.2211 70.3097L18.9115 75.7783C19.3587 76.4403 20.1116 76.8381 20.9171 76.8381H32.7894C33.5964 76.8381 34.3493 76.4403 34.795 75.7783L38.4854 70.3097C38.7474 69.9208 38.8874 69.4636 38.8889 68.9975L38.8964 62.5879H14.8116L14.8176 68.9975ZM26.854 0.838135C11.4539 0.838135 0.354004 13.1542 0.354004 26.9636C0.354004 33.5499 2.83085 39.5588 6.91275 44.1501C9.41821 46.969 13.348 52.8784 14.8055 57.8303V57.8392H22.0328V57.8214C22.0313 57.1134 21.9244 56.4098 21.7091 55.7329C20.8674 53.0892 18.2731 46.1184 12.3483 39.4534C9.2556 35.9755 7.60236 31.5638 7.5888 26.9636C7.55869 16.0325 16.5732 7.96327 26.854 7.96327C37.4811 7.96327 46.1267 16.4867 46.1267 26.9636C46.1267 31.5608 44.4343 35.9962 41.3612 39.4534C35.4725 46.0753 32.8662 53.0313 32.011 55.7017C31.7902 56.3883 31.6775 57.1042 31.6767 57.8244V57.8392H38.904V57.8318C40.3615 52.8784 44.2913 46.969 46.7968 44.1516C50.8772 39.5588 53.354 33.5499 53.354 26.9636C53.354 12.5352 41.4892 0.838135 26.854 0.838135Z" fill="#6D82EC"/>
</svg>
