<svg width="24" height="24" viewBox="0 0 24 24" fill="none" xmlns="http://www.w3.org/2000/svg"><path fill-rule="evenodd" clip-rule="evenodd" d="M19.8037 13.5C19.8037 13.6908 19.8416 13.8799 19.9154 14.0571L21.3245 17.4429C21.7346 18.4282 20.9796 19.5 19.8754 19.5H4.12457C3.0204 19.5 2.26538 18.4282 2.67545 17.4429L4.08463 14.0571C4.15838 13.8799 4.19626 13.6908 4.19626 13.5V9C4.19626 4.85786 7.69011 1.5 12 1.5C16.3099 1.5 19.8037 4.85786 19.8037 9V13.5ZM1.22634 16.8858L2.63552 13.5V9C2.63552 4.02944 6.82814 0 12 0C17.1719 0 21.3645 4.02944 21.3645 9V13.5L22.7737 16.8858C23.5938 18.8564 22.0838 21 19.8754 21H15.8239C15.4624 22.7117 13.8878 24 12.0001 24C10.1124 24 8.53784 22.7117 8.17632 21H4.12457C1.91623 21 0.406179 18.8564 1.22634 16.8858ZM9.79223 21C10.1136 21.8739 10.9808 22.5 12.0001 22.5C13.0195 22.5 13.8867 21.8739 14.208 21H9.79223ZM11.2197 4.5C9.92677 4.5 8.87862 5.50736 8.87862 6.75C8.87862 7.16421 8.52923 7.5 8.09824 7.5C7.66726 7.5 7.31787 7.16421 7.31787 6.75C7.31787 4.67893 9.0648 3 11.2197 3C11.6507 3 12.0001 3.33579 12.0001 3.75C12.0001 4.16421 11.6507 4.5 11.2197 4.5Z" fill="#222222"></path></svg>