<svg width="429" height="338" viewBox="0 0 429 338" fill="none" xmlns="http://www.w3.org/2000/svg">
<path d="M31 317.5H405" stroke="#CCCCCC" stroke-dasharray="4 2"/>
<path d="M31 240H405" stroke="#CCCCCC" stroke-dasharray="4 2"/>
<path d="M31 162.5H405" stroke="#CCCCCC" stroke-dasharray="4 2"/>
<path d="M31 85H405" stroke="#CCCCCC" stroke-dasharray="4 2"/>
<path d="M31 7.5H405" stroke="#CCCCCC" stroke-dasharray="4 2"/>
<path d="M31.5 7V318" stroke="#CCCCCC" stroke-dasharray="4 2"/>
<path d="M93.6665 7V318" stroke="#CCCCCC" stroke-dasharray="4 2"/>
<path d="M155.833 7V318" stroke="#CCCCCC" stroke-dasharray="4 2"/>
<path d="M218 7V318" stroke="#CCCCCC" stroke-dasharray="4 2"/>
<path d="M280.167 7V318" stroke="#CCCCCC" stroke-dasharray="4 2"/>
<path d="M342.333 7V318" stroke="#CCCCCC" stroke-dasharray="4 2"/>
<path d="M404.5 7V318" stroke="#CCCCCC" stroke-dasharray="4 2"/>
<path d="M20.3145 316.055V317.355C20.3145 318.055 20.252 318.645 20.127 319.125C20.002 319.605 19.8223 319.992 19.5879 320.285C19.3535 320.578 19.0703 320.791 18.7383 320.924C18.4102 321.053 18.0391 321.117 17.625 321.117C17.2969 321.117 16.9941 321.076 16.7168 320.994C16.4395 320.912 16.1895 320.781 15.9668 320.602C15.748 320.418 15.5605 320.18 15.4043 319.887C15.248 319.594 15.1289 319.238 15.0469 318.82C14.9648 318.402 14.9238 317.914 14.9238 317.355V316.055C14.9238 315.355 14.9863 314.77 15.1113 314.297C15.2402 313.824 15.4219 313.445 15.6562 313.16C15.8906 312.871 16.1719 312.664 16.5 312.539C16.832 312.414 17.2031 312.352 17.6133 312.352C17.9453 312.352 18.25 312.393 18.5273 312.475C18.8086 312.553 19.0586 312.68 19.2773 312.855C19.4961 313.027 19.6816 313.258 19.834 313.547C19.9902 313.832 20.1094 314.182 20.1914 314.596C20.2734 315.01 20.3145 315.496 20.3145 316.055ZM19.2246 317.531V315.873C19.2246 315.49 19.2012 315.154 19.1543 314.865C19.1113 314.572 19.0469 314.322 18.9609 314.115C18.875 313.908 18.7656 313.74 18.6328 313.611C18.5039 313.482 18.3535 313.389 18.1816 313.33C18.0137 313.268 17.8242 313.236 17.6133 313.236C17.3555 313.236 17.127 313.285 16.9277 313.383C16.7285 313.477 16.5605 313.627 16.4238 313.834C16.291 314.041 16.1895 314.312 16.1191 314.648C16.0488 314.984 16.0137 315.393 16.0137 315.873V317.531C16.0137 317.914 16.0352 318.252 16.0781 318.545C16.125 318.838 16.1934 319.092 16.2832 319.307C16.373 319.518 16.4824 319.691 16.6113 319.828C16.7402 319.965 16.8887 320.066 17.0566 320.133C17.2285 320.195 17.418 320.227 17.625 320.227C17.8906 320.227 18.123 320.176 18.3223 320.074C18.5215 319.973 18.6875 319.814 18.8203 319.6C18.957 319.381 19.0586 319.102 19.125 318.762C19.1914 318.418 19.2246 318.008 19.2246 317.531Z" fill="#333333"/>
<path d="M13.7988 242.609V243.5H8.21484V242.721L11.0098 239.609C11.3535 239.227 11.6191 238.902 11.8066 238.637C11.998 238.367 12.1309 238.127 12.2051 237.916C12.2832 237.701 12.3223 237.482 12.3223 237.26C12.3223 236.979 12.2637 236.725 12.1465 236.498C12.0332 236.268 11.8652 236.084 11.6426 235.947C11.4199 235.811 11.1504 235.742 10.834 235.742C10.4551 235.742 10.1387 235.816 9.88477 235.965C9.63477 236.109 9.44727 236.312 9.32227 236.574C9.19727 236.836 9.13477 237.137 9.13477 237.477H8.05078C8.05078 236.996 8.15625 236.557 8.36719 236.158C8.57812 235.76 8.89062 235.443 9.30469 235.209C9.71875 234.971 10.2285 234.852 10.834 234.852C11.373 234.852 11.834 234.947 12.2168 235.139C12.5996 235.326 12.8926 235.592 13.0957 235.936C13.3027 236.275 13.4062 236.674 13.4062 237.131C13.4062 237.381 13.3633 237.635 13.2773 237.893C13.1953 238.146 13.0801 238.4 12.9316 238.654C12.7871 238.908 12.6172 239.158 12.4219 239.404C12.2305 239.65 12.0254 239.893 11.8066 240.131L9.52148 242.609H13.7988ZM16.3301 239.439L15.4629 239.217L15.8906 234.969H20.2676V235.971H16.8105L16.5527 238.291C16.709 238.201 16.9062 238.117 17.1445 238.039C17.3867 237.961 17.6641 237.922 17.9766 237.922C18.3711 237.922 18.7246 237.99 19.0371 238.127C19.3496 238.26 19.6152 238.451 19.834 238.701C20.0566 238.951 20.2266 239.252 20.3438 239.604C20.4609 239.955 20.5195 240.348 20.5195 240.781C20.5195 241.191 20.4629 241.568 20.3496 241.912C20.2402 242.256 20.0742 242.557 19.8516 242.814C19.6289 243.068 19.3477 243.266 19.0078 243.406C18.6719 243.547 18.2754 243.617 17.8184 243.617C17.4746 243.617 17.1484 243.57 16.8398 243.477C16.5352 243.379 16.2617 243.232 16.0195 243.037C15.7812 242.838 15.5859 242.592 15.4336 242.299C15.2852 242.002 15.1914 241.654 15.1523 241.256H16.1836C16.2305 241.576 16.3242 241.846 16.4648 242.064C16.6055 242.283 16.7891 242.449 17.0156 242.562C17.2461 242.672 17.5137 242.727 17.8184 242.727C18.0762 242.727 18.3047 242.682 18.5039 242.592C18.7031 242.502 18.8711 242.373 19.0078 242.205C19.1445 242.037 19.248 241.834 19.3184 241.596C19.3926 241.357 19.4297 241.09 19.4297 240.793C19.4297 240.523 19.3926 240.273 19.3184 240.043C19.2441 239.812 19.1328 239.611 18.9844 239.439C18.8398 239.268 18.6621 239.135 18.4512 239.041C18.2402 238.943 17.998 238.895 17.7246 238.895C17.3613 238.895 17.0859 238.943 16.8984 239.041C16.7148 239.139 16.5254 239.271 16.3301 239.439Z" fill="#333333"/>
<path d="M9.58008 161.939L8.71289 161.717L9.14062 157.469H13.5176V158.471H10.0605L9.80273 160.791C9.95898 160.701 10.1562 160.617 10.3945 160.539C10.6367 160.461 10.9141 160.422 11.2266 160.422C11.6211 160.422 11.9746 160.49 12.2871 160.627C12.5996 160.76 12.8652 160.951 13.084 161.201C13.3066 161.451 13.4766 161.752 13.5938 162.104C13.7109 162.455 13.7695 162.848 13.7695 163.281C13.7695 163.691 13.7129 164.068 13.5996 164.412C13.4902 164.756 13.3242 165.057 13.1016 165.314C12.8789 165.568 12.5977 165.766 12.2578 165.906C11.9219 166.047 11.5254 166.117 11.0684 166.117C10.7246 166.117 10.3984 166.07 10.0898 165.977C9.78516 165.879 9.51172 165.732 9.26953 165.537C9.03125 165.338 8.83594 165.092 8.68359 164.799C8.53516 164.502 8.44141 164.154 8.40234 163.756H9.43359C9.48047 164.076 9.57422 164.346 9.71484 164.564C9.85547 164.783 10.0391 164.949 10.2656 165.062C10.4961 165.172 10.7637 165.227 11.0684 165.227C11.3262 165.227 11.5547 165.182 11.7539 165.092C11.9531 165.002 12.1211 164.873 12.2578 164.705C12.3945 164.537 12.498 164.334 12.5684 164.096C12.6426 163.857 12.6797 163.59 12.6797 163.293C12.6797 163.023 12.6426 162.773 12.5684 162.543C12.4941 162.312 12.3828 162.111 12.2344 161.939C12.0898 161.768 11.9121 161.635 11.7012 161.541C11.4902 161.443 11.248 161.395 10.9746 161.395C10.6113 161.395 10.3359 161.443 10.1484 161.541C9.96484 161.639 9.77539 161.771 9.58008 161.939ZM20.3145 161.055V162.355C20.3145 163.055 20.252 163.645 20.127 164.125C20.002 164.605 19.8223 164.992 19.5879 165.285C19.3535 165.578 19.0703 165.791 18.7383 165.924C18.4102 166.053 18.0391 166.117 17.625 166.117C17.2969 166.117 16.9941 166.076 16.7168 165.994C16.4395 165.912 16.1895 165.781 15.9668 165.602C15.748 165.418 15.5605 165.18 15.4043 164.887C15.248 164.594 15.1289 164.238 15.0469 163.82C14.9648 163.402 14.9238 162.914 14.9238 162.355V161.055C14.9238 160.355 14.9863 159.77 15.1113 159.297C15.2402 158.824 15.4219 158.445 15.6562 158.16C15.8906 157.871 16.1719 157.664 16.5 157.539C16.832 157.414 17.2031 157.352 17.6133 157.352C17.9453 157.352 18.25 157.393 18.5273 157.475C18.8086 157.553 19.0586 157.68 19.2773 157.855C19.4961 158.027 19.6816 158.258 19.834 158.547C19.9902 158.832 20.1094 159.182 20.1914 159.596C20.2734 160.01 20.3145 160.496 20.3145 161.055ZM19.2246 162.531V160.873C19.2246 160.49 19.2012 160.154 19.1543 159.865C19.1113 159.572 19.0469 159.322 18.9609 159.115C18.875 158.908 18.7656 158.74 18.6328 158.611C18.5039 158.482 18.3535 158.389 18.1816 158.33C18.0137 158.268 17.8242 158.236 17.6133 158.236C17.3555 158.236 17.127 158.285 16.9277 158.383C16.7285 158.477 16.5605 158.627 16.4238 158.834C16.291 159.041 16.1895 159.312 16.1191 159.648C16.0488 159.984 16.0137 160.393 16.0137 160.873V162.531C16.0137 162.914 16.0352 163.252 16.0781 163.545C16.125 163.838 16.1934 164.092 16.2832 164.307C16.373 164.518 16.4824 164.691 16.6113 164.828C16.7402 164.965 16.8887 165.066 17.0566 165.133C17.2285 165.195 17.418 165.227 17.625 165.227C17.8906 165.227 18.123 165.176 18.3223 165.074C18.5215 164.973 18.6875 164.814 18.8203 164.6C18.957 164.381 19.0586 164.102 19.125 163.762C19.1914 163.418 19.2246 163.008 19.2246 162.531Z" fill="#333333"/>
<path d="M13.7227 79.9688V80.5781L10.1895 88.5H9.04688L12.5742 80.8594H7.95703V79.9688H13.7227ZM16.3301 84.4395L15.4629 84.2168L15.8906 79.9688H20.2676V80.9707H16.8105L16.5527 83.291C16.709 83.2012 16.9062 83.1172 17.1445 83.0391C17.3867 82.9609 17.6641 82.9219 17.9766 82.9219C18.3711 82.9219 18.7246 82.9902 19.0371 83.127C19.3496 83.2598 19.6152 83.4512 19.834 83.7012C20.0566 83.9512 20.2266 84.252 20.3438 84.6035C20.4609 84.9551 20.5195 85.3477 20.5195 85.7812C20.5195 86.1914 20.4629 86.5684 20.3496 86.9121C20.2402 87.2559 20.0742 87.5566 19.8516 87.8145C19.6289 88.0684 19.3477 88.2656 19.0078 88.4062C18.6719 88.5469 18.2754 88.6172 17.8184 88.6172C17.4746 88.6172 17.1484 88.5703 16.8398 88.4766C16.5352 88.3789 16.2617 88.2324 16.0195 88.0371C15.7812 87.8379 15.5859 87.5918 15.4336 87.2988C15.2852 87.002 15.1914 86.6543 15.1523 86.2559H16.1836C16.2305 86.5762 16.3242 86.8457 16.4648 87.0645C16.6055 87.2832 16.7891 87.4492 17.0156 87.5625C17.2461 87.6719 17.5137 87.7266 17.8184 87.7266C18.0762 87.7266 18.3047 87.6816 18.5039 87.5918C18.7031 87.502 18.8711 87.373 19.0078 87.2051C19.1445 87.0371 19.248 86.834 19.3184 86.5957C19.3926 86.3574 19.4297 86.0898 19.4297 85.793C19.4297 85.5234 19.3926 85.2734 19.3184 85.043C19.2441 84.8125 19.1328 84.6113 18.9844 84.4395C18.8398 84.2676 18.6621 84.1348 18.4512 84.041C18.2402 83.9434 17.998 83.8945 17.7246 83.8945C17.3613 83.8945 17.0859 83.9434 16.8984 84.041C16.7148 84.1387 16.5254 84.2715 16.3301 84.4395Z" fill="#333333"/>
<path d="M5.02148 2.42188V11H3.9375V3.77539L1.75195 4.57227V3.59375L4.85156 2.42188H5.02148ZM13.5645 6.05469V7.35547C13.5645 8.05469 13.502 8.64453 13.377 9.125C13.252 9.60547 13.0723 9.99219 12.8379 10.2852C12.6035 10.5781 12.3203 10.791 11.9883 10.9238C11.6602 11.0527 11.2891 11.1172 10.875 11.1172C10.5469 11.1172 10.2441 11.0762 9.9668 10.9941C9.68945 10.9121 9.43945 10.7812 9.2168 10.6016C8.99805 10.418 8.81055 10.1797 8.6543 9.88672C8.49805 9.59375 8.37891 9.23828 8.29688 8.82031C8.21484 8.40234 8.17383 7.91406 8.17383 7.35547V6.05469C8.17383 5.35547 8.23633 4.76953 8.36133 4.29688C8.49023 3.82422 8.67188 3.44531 8.90625 3.16016C9.14062 2.87109 9.42188 2.66406 9.75 2.53906C10.082 2.41406 10.4531 2.35156 10.8633 2.35156C11.1953 2.35156 11.5 2.39258 11.7773 2.47461C12.0586 2.55273 12.3086 2.67969 12.5273 2.85547C12.7461 3.02734 12.9316 3.25781 13.084 3.54688C13.2402 3.83203 13.3594 4.18164 13.4414 4.5957C13.5234 5.00977 13.5645 5.49609 13.5645 6.05469ZM12.4746 7.53125V5.87305C12.4746 5.49023 12.4512 5.1543 12.4043 4.86523C12.3613 4.57227 12.2969 4.32227 12.2109 4.11523C12.125 3.9082 12.0156 3.74023 11.8828 3.61133C11.7539 3.48242 11.6035 3.38867 11.4316 3.33008C11.2637 3.26758 11.0742 3.23633 10.8633 3.23633C10.6055 3.23633 10.377 3.28516 10.1777 3.38281C9.97852 3.47656 9.81055 3.62695 9.67383 3.83398C9.54102 4.04102 9.43945 4.3125 9.36914 4.64844C9.29883 4.98438 9.26367 5.39258 9.26367 5.87305V7.53125C9.26367 7.91406 9.28516 8.25195 9.32812 8.54492C9.375 8.83789 9.44336 9.0918 9.5332 9.30664C9.62305 9.51758 9.73242 9.69141 9.86133 9.82812C9.99023 9.96484 10.1387 10.0664 10.3066 10.1328C10.4785 10.1953 10.668 10.2266 10.875 10.2266C11.1406 10.2266 11.373 10.1758 11.5723 10.0742C11.7715 9.97266 11.9375 9.81445 12.0703 9.59961C12.207 9.38086 12.3086 9.10156 12.375 8.76172C12.4414 8.41797 12.4746 8.00781 12.4746 7.53125ZM20.3145 6.05469V7.35547C20.3145 8.05469 20.252 8.64453 20.127 9.125C20.002 9.60547 19.8223 9.99219 19.5879 10.2852C19.3535 10.5781 19.0703 10.791 18.7383 10.9238C18.4102 11.0527 18.0391 11.1172 17.625 11.1172C17.2969 11.1172 16.9941 11.0762 16.7168 10.9941C16.4395 10.9121 16.1895 10.7812 15.9668 10.6016C15.748 10.418 15.5605 10.1797 15.4043 9.88672C15.248 9.59375 15.1289 9.23828 15.0469 8.82031C14.9648 8.40234 14.9238 7.91406 14.9238 7.35547V6.05469C14.9238 5.35547 14.9863 4.76953 15.1113 4.29688C15.2402 3.82422 15.4219 3.44531 15.6562 3.16016C15.8906 2.87109 16.1719 2.66406 16.5 2.53906C16.832 2.41406 17.2031 2.35156 17.6133 2.35156C17.9453 2.35156 18.25 2.39258 18.5273 2.47461C18.8086 2.55273 19.0586 2.67969 19.2773 2.85547C19.4961 3.02734 19.6816 3.25781 19.834 3.54688C19.9902 3.83203 20.1094 4.18164 20.1914 4.5957C20.2734 5.00977 20.3145 5.49609 20.3145 6.05469ZM19.2246 7.53125V5.87305C19.2246 5.49023 19.2012 5.1543 19.1543 4.86523C19.1113 4.57227 19.0469 4.32227 18.9609 4.11523C18.875 3.9082 18.7656 3.74023 18.6328 3.61133C18.5039 3.48242 18.3535 3.38867 18.1816 3.33008C18.0137 3.26758 17.8242 3.23633 17.6133 3.23633C17.3555 3.23633 17.127 3.28516 16.9277 3.38281C16.7285 3.47656 16.5605 3.62695 16.4238 3.83398C16.291 4.04102 16.1895 4.3125 16.1191 4.64844C16.0488 4.98438 16.0137 5.39258 16.0137 5.87305V7.53125C16.0137 7.91406 16.0352 8.25195 16.0781 8.54492C16.125 8.83789 16.1934 9.0918 16.2832 9.30664C16.373 9.51758 16.4824 9.69141 16.6113 9.82812C16.7402 9.96484 16.8887 10.0664 17.0566 10.1328C17.2285 10.1953 17.418 10.2266 17.625 10.2266C17.8906 10.2266 18.123 10.1758 18.3223 10.0742C18.5215 9.97266 18.6875 9.81445 18.8203 9.59961C18.957 9.38086 19.0586 9.10156 19.125 8.76172C19.1914 8.41797 19.2246 8.00781 19.2246 7.53125Z" fill="#333333"/>
<path d="M21.6504 334.08V335H17.3848V334.08H21.6504ZM17.6074 326.469V335H16.4766V326.469H17.6074ZM26.4023 333.535V328.66H27.4922V335H26.4551L26.4023 333.535ZM26.6074 332.199L27.0586 332.188C27.0586 332.609 27.0137 333 26.9238 333.359C26.8379 333.715 26.6973 334.023 26.502 334.285C26.3066 334.547 26.0508 334.752 25.7344 334.9C25.418 335.045 25.0332 335.117 24.5801 335.117C24.2715 335.117 23.9883 335.072 23.7305 334.982C23.4766 334.893 23.2578 334.754 23.0742 334.566C22.8906 334.379 22.748 334.135 22.6465 333.834C22.5488 333.533 22.5 333.172 22.5 332.75V328.66H23.584V332.762C23.584 333.047 23.6152 333.283 23.6777 333.471C23.7441 333.654 23.832 333.801 23.9414 333.91C24.0547 334.016 24.1797 334.09 24.3164 334.133C24.457 334.176 24.6016 334.197 24.75 334.197C25.2109 334.197 25.5762 334.109 25.8457 333.934C26.1152 333.754 26.3086 333.514 26.4258 333.213C26.5469 332.908 26.6074 332.57 26.6074 332.199ZM30.2285 330.014V335H29.1445V328.66H30.1699L30.2285 330.014ZM29.9707 331.59L29.5195 331.572C29.5234 331.139 29.5879 330.738 29.7129 330.371C29.8379 330 30.0137 329.678 30.2402 329.404C30.4668 329.131 30.7363 328.92 31.0488 328.771C31.3652 328.619 31.7148 328.543 32.0977 328.543C32.4102 328.543 32.6914 328.586 32.9414 328.672C33.1914 328.754 33.4043 328.887 33.5801 329.07C33.7598 329.254 33.8965 329.492 33.9902 329.785C34.084 330.074 34.1309 330.428 34.1309 330.846V335H33.041V330.834C33.041 330.502 32.9922 330.236 32.8945 330.037C32.7969 329.834 32.6543 329.688 32.4668 329.598C32.2793 329.504 32.0488 329.457 31.7754 329.457C31.5059 329.457 31.2598 329.514 31.0371 329.627C30.8184 329.74 30.6289 329.896 30.4688 330.096C30.3125 330.295 30.1895 330.523 30.0996 330.781C30.0137 331.035 29.9707 331.305 29.9707 331.59ZM38.4082 335.117C37.9668 335.117 37.5664 335.043 37.207 334.895C36.8516 334.742 36.5449 334.529 36.2871 334.256C36.0332 333.982 35.8379 333.658 35.7012 333.283C35.5645 332.908 35.4961 332.498 35.4961 332.053V331.807C35.4961 331.291 35.5723 330.832 35.7246 330.43C35.877 330.023 36.084 329.68 36.3457 329.398C36.6074 329.117 36.9043 328.904 37.2363 328.76C37.5684 328.615 37.9121 328.543 38.2676 328.543C38.7207 328.543 39.1113 328.621 39.4395 328.777C39.7715 328.934 40.043 329.152 40.2539 329.434C40.4648 329.711 40.6211 330.039 40.7227 330.418C40.8242 330.793 40.875 331.203 40.875 331.648V332.135H36.1406V331.25H39.791V331.168C39.7754 330.887 39.7168 330.613 39.6152 330.348C39.5176 330.082 39.3613 329.863 39.1465 329.691C38.9316 329.52 38.6387 329.434 38.2676 329.434C38.0215 329.434 37.7949 329.486 37.5879 329.592C37.3809 329.693 37.2031 329.846 37.0547 330.049C36.9062 330.252 36.791 330.5 36.709 330.793C36.627 331.086 36.5859 331.424 36.5859 331.807V332.053C36.5859 332.354 36.627 332.637 36.709 332.902C36.7949 333.164 36.918 333.395 37.0781 333.594C37.2422 333.793 37.4395 333.949 37.6699 334.062C37.9043 334.176 38.1699 334.232 38.4668 334.232C38.8496 334.232 39.1738 334.154 39.4395 333.998C39.7051 333.842 39.9375 333.633 40.1367 333.371L40.793 333.893C40.6562 334.1 40.4824 334.297 40.2715 334.484C40.0605 334.672 39.8008 334.824 39.4922 334.941C39.1875 335.059 38.8262 335.117 38.4082 335.117ZM45.832 333.318C45.832 333.162 45.7969 333.018 45.7266 332.885C45.6602 332.748 45.5215 332.625 45.3105 332.516C45.1035 332.402 44.791 332.305 44.373 332.223C44.0215 332.148 43.7031 332.061 43.418 331.959C43.1367 331.857 42.8965 331.734 42.6973 331.59C42.502 331.445 42.3516 331.275 42.2461 331.08C42.1406 330.885 42.0879 330.656 42.0879 330.395C42.0879 330.145 42.1426 329.908 42.252 329.686C42.3652 329.463 42.5234 329.266 42.7266 329.094C42.9336 328.922 43.1816 328.787 43.4707 328.689C43.7598 328.592 44.082 328.543 44.4375 328.543C44.9453 328.543 45.3789 328.633 45.7383 328.812C46.0977 328.992 46.373 329.232 46.5645 329.533C46.7559 329.83 46.8516 330.16 46.8516 330.523H45.7676C45.7676 330.348 45.7148 330.178 45.6094 330.014C45.5078 329.846 45.3574 329.707 45.1582 329.598C44.9629 329.488 44.7227 329.434 44.4375 329.434C44.1367 329.434 43.8926 329.48 43.7051 329.574C43.5215 329.664 43.3867 329.779 43.3008 329.92C43.2188 330.061 43.1777 330.209 43.1777 330.365C43.1777 330.482 43.1973 330.588 43.2363 330.682C43.2793 330.771 43.3535 330.855 43.459 330.934C43.5645 331.008 43.7129 331.078 43.9043 331.145C44.0957 331.211 44.3398 331.277 44.6367 331.344C45.1562 331.461 45.584 331.602 45.9199 331.766C46.2559 331.93 46.5059 332.131 46.6699 332.369C46.834 332.607 46.916 332.896 46.916 333.236C46.916 333.514 46.8574 333.768 46.7402 333.998C46.627 334.229 46.4609 334.428 46.2422 334.596C46.0273 334.76 45.7695 334.889 45.4688 334.982C45.1719 335.072 44.8379 335.117 44.4668 335.117C43.9082 335.117 43.4355 335.018 43.0488 334.818C42.6621 334.619 42.3691 334.361 42.1699 334.045C41.9707 333.729 41.8711 333.395 41.8711 333.043H42.9609C42.9766 333.34 43.0625 333.576 43.2188 333.752C43.375 333.924 43.5664 334.047 43.793 334.121C44.0195 334.191 44.2441 334.227 44.4668 334.227C44.7637 334.227 45.0117 334.188 45.2109 334.109C45.4141 334.031 45.5684 333.924 45.6738 333.787C45.7793 333.65 45.832 333.494 45.832 333.318Z" fill="#333333"/>
<path d="M76.2886 329.92V335H75.1987V328.66H76.23L76.2886 329.92ZM76.0659 331.59L75.562 331.572C75.5659 331.139 75.6226 330.738 75.7319 330.371C75.8413 330 76.0034 329.678 76.2183 329.404C76.4331 329.131 76.7007 328.92 77.021 328.771C77.3413 328.619 77.7124 328.543 78.1343 328.543C78.4312 328.543 78.7046 328.586 78.9546 328.672C79.2046 328.754 79.4214 328.885 79.605 329.064C79.7886 329.244 79.9312 329.475 80.0327 329.756C80.1343 330.037 80.1851 330.377 80.1851 330.775V335H79.1011V330.828C79.1011 330.496 79.0444 330.23 78.9312 330.031C78.8218 329.832 78.6655 329.688 78.4624 329.598C78.2593 329.504 78.021 329.457 77.7476 329.457C77.4272 329.457 77.1597 329.514 76.9448 329.627C76.73 329.74 76.5581 329.896 76.4292 330.096C76.3003 330.295 76.2065 330.523 76.1479 330.781C76.0933 331.035 76.0659 331.305 76.0659 331.59ZM80.1733 330.992L79.4468 331.215C79.4507 330.867 79.5073 330.533 79.6167 330.213C79.73 329.893 79.8921 329.607 80.103 329.357C80.3179 329.107 80.5815 328.91 80.894 328.766C81.2065 328.617 81.564 328.543 81.9663 328.543C82.3062 328.543 82.6069 328.588 82.8687 328.678C83.1343 328.768 83.3569 328.906 83.5366 329.094C83.7202 329.277 83.8589 329.514 83.9526 329.803C84.0464 330.092 84.0933 330.436 84.0933 330.834V335H83.0034V330.822C83.0034 330.467 82.9468 330.191 82.8335 329.996C82.7241 329.797 82.5679 329.658 82.3647 329.58C82.1655 329.498 81.9272 329.457 81.6499 329.457C81.4116 329.457 81.2007 329.498 81.0171 329.58C80.8335 329.662 80.6792 329.775 80.5542 329.92C80.4292 330.061 80.3335 330.223 80.2671 330.406C80.2046 330.59 80.1733 330.785 80.1733 330.992ZM89.4722 333.916V330.652C89.4722 330.402 89.4214 330.186 89.3198 330.002C89.2222 329.814 89.0737 329.67 88.8745 329.568C88.6753 329.467 88.4292 329.416 88.1362 329.416C87.8628 329.416 87.6226 329.463 87.4155 329.557C87.2124 329.65 87.0522 329.773 86.9351 329.926C86.8218 330.078 86.7651 330.242 86.7651 330.418H85.6812C85.6812 330.191 85.7397 329.967 85.8569 329.744C85.9741 329.521 86.1421 329.32 86.3608 329.141C86.5835 328.957 86.8491 328.812 87.1577 328.707C87.4702 328.598 87.8179 328.543 88.2007 328.543C88.6616 328.543 89.0679 328.621 89.4194 328.777C89.7749 328.934 90.0522 329.17 90.2515 329.486C90.4546 329.799 90.5562 330.191 90.5562 330.664V333.617C90.5562 333.828 90.5737 334.053 90.6089 334.291C90.6479 334.529 90.7046 334.734 90.7788 334.906V335H89.6479C89.5933 334.875 89.5503 334.709 89.519 334.502C89.4878 334.291 89.4722 334.096 89.4722 333.916ZM89.6597 331.156L89.6714 331.918H88.5757C88.2671 331.918 87.9917 331.943 87.7495 331.994C87.5073 332.041 87.3042 332.113 87.1401 332.211C86.9761 332.309 86.8511 332.432 86.7651 332.58C86.6792 332.725 86.6362 332.895 86.6362 333.09C86.6362 333.289 86.6812 333.471 86.771 333.635C86.8608 333.799 86.9956 333.93 87.1753 334.027C87.3589 334.121 87.5835 334.168 87.8491 334.168C88.1812 334.168 88.4741 334.098 88.728 333.957C88.9819 333.816 89.1831 333.645 89.3315 333.441C89.4839 333.238 89.5659 333.041 89.5776 332.85L90.0405 333.371C90.0132 333.535 89.939 333.717 89.8179 333.916C89.6968 334.115 89.5347 334.307 89.3315 334.49C89.1323 334.67 88.894 334.82 88.6167 334.941C88.3433 335.059 88.0347 335.117 87.6909 335.117C87.2612 335.117 86.8843 335.033 86.5601 334.865C86.2397 334.697 85.9897 334.473 85.8101 334.191C85.6343 333.906 85.5464 333.588 85.5464 333.236C85.5464 332.896 85.6128 332.598 85.7456 332.34C85.8784 332.078 86.0698 331.861 86.3198 331.689C86.5698 331.514 86.8706 331.381 87.2222 331.291C87.5737 331.201 87.9663 331.156 88.3999 331.156H89.6597ZM93.3452 329.656V335H92.2612V328.66H93.3159L93.3452 329.656ZM95.3257 328.625L95.3198 329.633C95.23 329.613 95.144 329.602 95.062 329.598C94.9839 329.59 94.894 329.586 94.7925 329.586C94.5425 329.586 94.3218 329.625 94.1304 329.703C93.939 329.781 93.7769 329.891 93.644 330.031C93.5112 330.172 93.4058 330.34 93.3276 330.535C93.2534 330.727 93.2046 330.938 93.1812 331.168L92.8765 331.344C92.8765 330.961 92.9136 330.602 92.9878 330.266C93.0659 329.93 93.1851 329.633 93.3452 329.375C93.5054 329.113 93.7085 328.91 93.9546 328.766C94.2046 328.617 94.5015 328.543 94.8452 328.543C94.9233 328.543 95.0132 328.553 95.1147 328.572C95.2163 328.588 95.2866 328.605 95.3257 328.625ZM99.2749 328.66V329.492H95.8472V328.66H99.2749ZM97.0073 327.119H98.0913V333.43C98.0913 333.645 98.1245 333.807 98.1909 333.916C98.2573 334.025 98.3433 334.098 98.4487 334.133C98.5542 334.168 98.6675 334.186 98.7886 334.186C98.8784 334.186 98.9722 334.178 99.0698 334.162C99.1714 334.143 99.2476 334.127 99.2983 334.115L99.3042 335C99.2183 335.027 99.105 335.053 98.9644 335.076C98.8276 335.104 98.6616 335.117 98.4663 335.117C98.2007 335.117 97.9565 335.064 97.7339 334.959C97.5112 334.854 97.3335 334.678 97.2007 334.432C97.0718 334.182 97.0073 333.846 97.0073 333.424V327.119ZM103.177 335.117C102.736 335.117 102.335 335.043 101.976 334.895C101.621 334.742 101.314 334.529 101.056 334.256C100.802 333.982 100.607 333.658 100.47 333.283C100.333 332.908 100.265 332.498 100.265 332.053V331.807C100.265 331.291 100.341 330.832 100.494 330.43C100.646 330.023 100.853 329.68 101.115 329.398C101.376 329.117 101.673 328.904 102.005 328.76C102.337 328.615 102.681 328.543 103.037 328.543C103.49 328.543 103.88 328.621 104.208 328.777C104.541 328.934 104.812 329.152 105.023 329.434C105.234 329.711 105.39 330.039 105.492 330.418C105.593 330.793 105.644 331.203 105.644 331.648V332.135H100.91V331.25H104.56V331.168C104.544 330.887 104.486 330.613 104.384 330.348C104.287 330.082 104.13 329.863 103.916 329.691C103.701 329.52 103.408 329.434 103.037 329.434C102.791 329.434 102.564 329.486 102.357 329.592C102.15 329.693 101.972 329.846 101.824 330.049C101.675 330.252 101.56 330.5 101.478 330.793C101.396 331.086 101.355 331.424 101.355 331.807V332.053C101.355 332.354 101.396 332.637 101.478 332.902C101.564 333.164 101.687 333.395 101.847 333.594C102.011 333.793 102.208 333.949 102.439 334.062C102.673 334.176 102.939 334.232 103.236 334.232C103.619 334.232 103.943 334.154 104.208 333.998C104.474 333.842 104.707 333.633 104.906 333.371L105.562 333.893C105.425 334.1 105.251 334.297 105.041 334.484C104.83 334.672 104.57 334.824 104.261 334.941C103.957 335.059 103.595 335.117 103.177 335.117ZM110.601 333.318C110.601 333.162 110.566 333.018 110.496 332.885C110.429 332.748 110.291 332.625 110.08 332.516C109.873 332.402 109.56 332.305 109.142 332.223C108.791 332.148 108.472 332.061 108.187 331.959C107.906 331.857 107.666 331.734 107.466 331.59C107.271 331.445 107.121 331.275 107.015 331.08C106.91 330.885 106.857 330.656 106.857 330.395C106.857 330.145 106.912 329.908 107.021 329.686C107.134 329.463 107.292 329.266 107.496 329.094C107.703 328.922 107.951 328.787 108.24 328.689C108.529 328.592 108.851 328.543 109.207 328.543C109.714 328.543 110.148 328.633 110.507 328.812C110.867 328.992 111.142 329.232 111.333 329.533C111.525 329.83 111.621 330.16 111.621 330.523H110.537C110.537 330.348 110.484 330.178 110.378 330.014C110.277 329.846 110.126 329.707 109.927 329.598C109.732 329.488 109.492 329.434 109.207 329.434C108.906 329.434 108.662 329.48 108.474 329.574C108.291 329.664 108.156 329.779 108.07 329.92C107.988 330.061 107.947 330.209 107.947 330.365C107.947 330.482 107.966 330.588 108.005 330.682C108.048 330.771 108.123 330.855 108.228 330.934C108.333 331.008 108.482 331.078 108.673 331.145C108.865 331.211 109.109 331.277 109.406 331.344C109.925 331.461 110.353 331.602 110.689 331.766C111.025 331.93 111.275 332.131 111.439 332.369C111.603 332.607 111.685 332.896 111.685 333.236C111.685 333.514 111.626 333.768 111.509 333.998C111.396 334.229 111.23 334.428 111.011 334.596C110.796 334.76 110.539 334.889 110.238 334.982C109.941 335.072 109.607 335.117 109.236 335.117C108.677 335.117 108.205 335.018 107.818 334.818C107.431 334.619 107.138 334.361 106.939 334.045C106.74 333.729 106.64 333.395 106.64 333.043H107.73C107.746 333.34 107.832 333.576 107.988 333.752C108.144 333.924 108.335 334.047 108.562 334.121C108.789 334.191 109.013 334.227 109.236 334.227C109.533 334.227 109.781 334.188 109.98 334.109C110.183 334.031 110.337 333.924 110.443 333.787C110.548 333.65 110.601 333.494 110.601 333.318Z" fill="#333333"/>
<path d="M131.391 329.92V335H130.301V328.66H131.333L131.391 329.92ZM131.168 331.59L130.665 331.572C130.668 331.139 130.725 330.738 130.834 330.371C130.944 330 131.106 329.678 131.321 329.404C131.536 329.131 131.803 328.92 132.124 328.771C132.444 328.619 132.815 328.543 133.237 328.543C133.534 328.543 133.807 328.586 134.057 328.672C134.307 328.754 134.524 328.885 134.708 329.064C134.891 329.244 135.034 329.475 135.135 329.756C135.237 330.037 135.288 330.377 135.288 330.775V335H134.204V330.828C134.204 330.496 134.147 330.23 134.034 330.031C133.924 329.832 133.768 329.688 133.565 329.598C133.362 329.504 133.124 329.457 132.85 329.457C132.53 329.457 132.262 329.514 132.047 329.627C131.833 329.74 131.661 329.896 131.532 330.096C131.403 330.295 131.309 330.523 131.25 330.781C131.196 331.035 131.168 331.305 131.168 331.59ZM135.276 330.992L134.549 331.215C134.553 330.867 134.61 330.533 134.719 330.213C134.833 329.893 134.995 329.607 135.206 329.357C135.42 329.107 135.684 328.91 135.997 328.766C136.309 328.617 136.667 328.543 137.069 328.543C137.409 328.543 137.709 328.588 137.971 328.678C138.237 328.768 138.459 328.906 138.639 329.094C138.823 329.277 138.961 329.514 139.055 329.803C139.149 330.092 139.196 330.436 139.196 330.834V335H138.106V330.822C138.106 330.467 138.049 330.191 137.936 329.996C137.827 329.797 137.67 329.658 137.467 329.58C137.268 329.498 137.03 329.457 136.752 329.457C136.514 329.457 136.303 329.498 136.12 329.58C135.936 329.662 135.782 329.775 135.657 329.92C135.532 330.061 135.436 330.223 135.37 330.406C135.307 330.59 135.276 330.785 135.276 330.992ZM142.014 328.66V335H140.924V328.66H142.014ZM140.842 326.979C140.842 326.803 140.895 326.654 141 326.533C141.11 326.412 141.27 326.352 141.481 326.352C141.688 326.352 141.846 326.412 141.956 326.533C142.069 326.654 142.125 326.803 142.125 326.979C142.125 327.146 142.069 327.291 141.956 327.412C141.846 327.529 141.688 327.588 141.481 327.588C141.27 327.588 141.11 327.529 141 327.412C140.895 327.291 140.842 327.146 140.842 326.979ZM146.385 335.117C145.944 335.117 145.543 335.043 145.184 334.895C144.829 334.742 144.522 334.529 144.264 334.256C144.01 333.982 143.815 333.658 143.678 333.283C143.542 332.908 143.473 332.498 143.473 332.053V331.807C143.473 331.291 143.549 330.832 143.702 330.43C143.854 330.023 144.061 329.68 144.323 329.398C144.584 329.117 144.881 328.904 145.213 328.76C145.545 328.615 145.889 328.543 146.245 328.543C146.698 328.543 147.088 328.621 147.417 328.777C147.749 328.934 148.02 329.152 148.231 329.434C148.442 329.711 148.598 330.039 148.7 330.418C148.801 330.793 148.852 331.203 148.852 331.648V332.135H144.118V331.25H147.768V331.168C147.752 330.887 147.694 330.613 147.592 330.348C147.495 330.082 147.338 329.863 147.124 329.691C146.909 329.52 146.616 329.434 146.245 329.434C145.999 329.434 145.772 329.486 145.565 329.592C145.358 329.693 145.18 329.846 145.032 330.049C144.883 330.252 144.768 330.5 144.686 330.793C144.604 331.086 144.563 331.424 144.563 331.807V332.053C144.563 332.354 144.604 332.637 144.686 332.902C144.772 333.164 144.895 333.395 145.055 333.594C145.219 333.793 145.417 333.949 145.647 334.062C145.881 334.176 146.147 334.232 146.444 334.232C146.827 334.232 147.151 334.154 147.417 333.998C147.682 333.842 147.915 333.633 148.114 333.371L148.77 333.893C148.633 334.1 148.459 334.297 148.249 334.484C148.038 334.672 147.778 334.824 147.469 334.941C147.165 335.059 146.803 335.117 146.385 335.117ZM145.641 327.723L146.778 326H148.084L146.514 327.723H145.641ZM151.202 329.656V335H150.118V328.66H151.172L151.202 329.656ZM153.182 328.625L153.176 329.633C153.086 329.613 153 329.602 152.918 329.598C152.84 329.59 152.75 329.586 152.649 329.586C152.399 329.586 152.178 329.625 151.987 329.703C151.795 329.781 151.633 329.891 151.5 330.031C151.368 330.172 151.262 330.34 151.184 330.535C151.11 330.727 151.061 330.938 151.038 331.168L150.733 331.344C150.733 330.961 150.77 330.602 150.844 330.266C150.922 329.93 151.042 329.633 151.202 329.375C151.362 329.113 151.565 328.91 151.811 328.766C152.061 328.617 152.358 328.543 152.702 328.543C152.78 328.543 152.87 328.553 152.971 328.572C153.073 328.588 153.143 328.605 153.182 328.625ZM156.604 334.227C156.862 334.227 157.1 334.174 157.319 334.068C157.538 333.963 157.717 333.818 157.858 333.635C157.999 333.447 158.079 333.234 158.098 332.996H159.129C159.11 333.371 158.983 333.721 158.749 334.045C158.518 334.365 158.215 334.625 157.84 334.824C157.465 335.02 157.053 335.117 156.604 335.117C156.127 335.117 155.711 335.033 155.356 334.865C155.004 334.697 154.711 334.467 154.477 334.174C154.247 333.881 154.073 333.545 153.956 333.166C153.842 332.783 153.786 332.379 153.786 331.953V331.707C153.786 331.281 153.842 330.879 153.956 330.5C154.073 330.117 154.247 329.779 154.477 329.486C154.711 329.193 155.004 328.963 155.356 328.795C155.711 328.627 156.127 328.543 156.604 328.543C157.1 328.543 157.534 328.645 157.905 328.848C158.276 329.047 158.567 329.32 158.778 329.668C158.993 330.012 159.11 330.402 159.129 330.84H158.098C158.079 330.578 158.004 330.342 157.875 330.131C157.75 329.92 157.579 329.752 157.36 329.627C157.145 329.498 156.893 329.434 156.604 329.434C156.272 329.434 155.993 329.5 155.766 329.633C155.543 329.762 155.366 329.938 155.233 330.16C155.104 330.379 155.01 330.623 154.952 330.893C154.897 331.158 154.87 331.43 154.87 331.707V331.953C154.87 332.23 154.897 332.504 154.952 332.773C155.006 333.043 155.098 333.287 155.227 333.506C155.36 333.725 155.538 333.9 155.76 334.033C155.987 334.162 156.268 334.227 156.604 334.227ZM160.061 331.9V331.766C160.061 331.309 160.127 330.885 160.26 330.494C160.393 330.1 160.584 329.758 160.834 329.469C161.084 329.176 161.387 328.949 161.743 328.789C162.098 328.625 162.497 328.543 162.938 328.543C163.383 328.543 163.784 328.625 164.139 328.789C164.499 328.949 164.803 329.176 165.053 329.469C165.307 329.758 165.5 330.1 165.633 330.494C165.766 330.885 165.833 331.309 165.833 331.766V331.9C165.833 332.357 165.766 332.781 165.633 333.172C165.5 333.562 165.307 333.904 165.053 334.197C164.803 334.486 164.5 334.713 164.145 334.877C163.793 335.037 163.395 335.117 162.95 335.117C162.504 335.117 162.104 335.037 161.749 334.877C161.393 334.713 161.088 334.486 160.834 334.197C160.584 333.904 160.393 333.562 160.26 333.172C160.127 332.781 160.061 332.357 160.061 331.9ZM161.145 331.766V331.9C161.145 332.217 161.182 332.516 161.256 332.797C161.331 333.074 161.442 333.32 161.59 333.535C161.743 333.75 161.932 333.92 162.159 334.045C162.385 334.166 162.649 334.227 162.95 334.227C163.247 334.227 163.506 334.166 163.729 334.045C163.956 333.92 164.143 333.75 164.292 333.535C164.44 333.32 164.551 333.074 164.625 332.797C164.704 332.516 164.743 332.217 164.743 331.9V331.766C164.743 331.453 164.704 331.158 164.625 330.881C164.551 330.6 164.438 330.352 164.286 330.137C164.137 329.918 163.95 329.746 163.723 329.621C163.5 329.496 163.239 329.434 162.938 329.434C162.641 329.434 162.379 329.496 162.153 329.621C161.93 329.746 161.743 329.918 161.59 330.137C161.442 330.352 161.331 330.6 161.256 330.881C161.182 331.158 161.145 331.453 161.145 331.766ZM168.37 326V335H167.28V326H168.37ZM172.741 335.117C172.299 335.117 171.899 335.043 171.54 334.895C171.184 334.742 170.877 334.529 170.62 334.256C170.366 333.982 170.17 333.658 170.034 333.283C169.897 332.908 169.829 332.498 169.829 332.053V331.807C169.829 331.291 169.905 330.832 170.057 330.43C170.209 330.023 170.417 329.68 170.678 329.398C170.94 329.117 171.237 328.904 171.569 328.76C171.901 328.615 172.245 328.543 172.6 328.543C173.053 328.543 173.444 328.621 173.772 328.777C174.104 328.934 174.375 329.152 174.586 329.434C174.797 329.711 174.954 330.039 175.055 330.418C175.157 330.793 175.208 331.203 175.208 331.648V332.135H170.473V331.25H174.124V331.168C174.108 330.887 174.049 330.613 173.948 330.348C173.85 330.082 173.694 329.863 173.479 329.691C173.264 329.52 172.971 329.434 172.6 329.434C172.354 329.434 172.127 329.486 171.92 329.592C171.713 329.693 171.536 329.846 171.387 330.049C171.239 330.252 171.124 330.5 171.042 330.793C170.959 331.086 170.918 331.424 170.918 331.807V332.053C170.918 332.354 170.959 332.637 171.042 332.902C171.127 333.164 171.25 333.395 171.411 333.594C171.575 333.793 171.772 333.949 172.002 334.062C172.237 334.176 172.502 334.232 172.799 334.232C173.182 334.232 173.506 334.154 173.772 333.998C174.038 333.842 174.27 333.633 174.469 333.371L175.125 333.893C174.989 334.1 174.815 334.297 174.604 334.484C174.393 334.672 174.133 334.824 173.825 334.941C173.52 335.059 173.159 335.117 172.741 335.117ZM180.165 333.318C180.165 333.162 180.129 333.018 180.059 332.885C179.993 332.748 179.854 332.625 179.643 332.516C179.436 332.402 179.124 332.305 178.706 332.223C178.354 332.148 178.036 332.061 177.75 331.959C177.469 331.857 177.229 331.734 177.03 331.59C176.834 331.445 176.684 331.275 176.579 331.08C176.473 330.885 176.42 330.656 176.42 330.395C176.42 330.145 176.475 329.908 176.584 329.686C176.698 329.463 176.856 329.266 177.059 329.094C177.266 328.922 177.514 328.787 177.803 328.689C178.092 328.592 178.415 328.543 178.77 328.543C179.278 328.543 179.711 328.633 180.071 328.812C180.43 328.992 180.706 329.232 180.897 329.533C181.088 329.83 181.184 330.16 181.184 330.523H180.1C180.1 330.348 180.047 330.178 179.942 330.014C179.84 329.846 179.69 329.707 179.491 329.598C179.295 329.488 179.055 329.434 178.77 329.434C178.469 329.434 178.225 329.48 178.038 329.574C177.854 329.664 177.719 329.779 177.633 329.92C177.551 330.061 177.51 330.209 177.51 330.365C177.51 330.482 177.53 330.588 177.569 330.682C177.612 330.771 177.686 330.855 177.792 330.934C177.897 331.008 178.045 331.078 178.237 331.145C178.428 331.211 178.672 331.277 178.969 331.344C179.489 331.461 179.917 331.602 180.252 331.766C180.588 331.93 180.838 332.131 181.002 332.369C181.167 332.607 181.249 332.896 181.249 333.236C181.249 333.514 181.19 333.768 181.073 333.998C180.959 334.229 180.793 334.428 180.575 334.596C180.36 334.76 180.102 334.889 179.801 334.982C179.504 335.072 179.17 335.117 178.799 335.117C178.241 335.117 177.768 335.018 177.381 334.818C176.995 334.619 176.702 334.361 176.502 334.045C176.303 333.729 176.204 333.395 176.204 333.043H177.293C177.309 333.34 177.395 333.576 177.551 333.752C177.708 333.924 177.899 334.047 178.125 334.121C178.352 334.191 178.577 334.227 178.799 334.227C179.096 334.227 179.344 334.188 179.543 334.109C179.747 334.031 179.901 333.924 180.006 333.787C180.112 333.65 180.165 333.494 180.165 333.318Z" fill="#333333"/>
<path d="M201.822 328.66H202.912V335.756C202.912 336.143 202.85 336.471 202.725 336.74C202.604 337.01 202.42 337.213 202.174 337.35C201.932 337.49 201.625 337.561 201.254 337.561C201.156 337.561 201.043 337.551 200.914 337.531C200.781 337.512 200.67 337.488 200.58 337.461L200.586 336.588C200.66 336.604 200.744 336.615 200.838 336.623C200.932 336.635 201.014 336.641 201.084 336.641C201.244 336.641 201.379 336.611 201.488 336.553C201.598 336.494 201.68 336.4 201.734 336.271C201.793 336.143 201.822 335.971 201.822 335.756V328.66ZM201.711 326.979C201.711 326.803 201.766 326.654 201.875 326.533C201.984 326.412 202.143 326.352 202.35 326.352C202.561 326.352 202.721 326.412 202.83 326.533C202.939 326.654 202.994 326.803 202.994 326.979C202.994 327.146 202.939 327.291 202.83 327.412C202.721 327.529 202.561 327.588 202.35 327.588C202.143 327.588 201.984 327.529 201.875 327.412C201.766 327.291 201.711 327.146 201.711 326.979ZM208.543 333.535V328.66H209.633V335H208.596L208.543 333.535ZM208.748 332.199L209.199 332.188C209.199 332.609 209.154 333 209.064 333.359C208.979 333.715 208.838 334.023 208.643 334.285C208.447 334.547 208.191 334.752 207.875 334.9C207.559 335.045 207.174 335.117 206.721 335.117C206.412 335.117 206.129 335.072 205.871 334.982C205.617 334.893 205.398 334.754 205.215 334.566C205.031 334.379 204.889 334.135 204.787 333.834C204.689 333.533 204.641 333.172 204.641 332.75V328.66H205.725V332.762C205.725 333.047 205.756 333.283 205.818 333.471C205.885 333.654 205.973 333.801 206.082 333.91C206.195 334.016 206.32 334.09 206.457 334.133C206.598 334.176 206.742 334.197 206.891 334.197C207.352 334.197 207.717 334.109 207.986 333.934C208.256 333.754 208.449 333.514 208.566 333.213C208.688 332.908 208.748 332.57 208.748 332.199ZM213.916 335.117C213.475 335.117 213.074 335.043 212.715 334.895C212.359 334.742 212.053 334.529 211.795 334.256C211.541 333.982 211.346 333.658 211.209 333.283C211.072 332.908 211.004 332.498 211.004 332.053V331.807C211.004 331.291 211.08 330.832 211.232 330.43C211.385 330.023 211.592 329.68 211.854 329.398C212.115 329.117 212.412 328.904 212.744 328.76C213.076 328.615 213.42 328.543 213.775 328.543C214.229 328.543 214.619 328.621 214.947 328.777C215.279 328.934 215.551 329.152 215.762 329.434C215.973 329.711 216.129 330.039 216.23 330.418C216.332 330.793 216.383 331.203 216.383 331.648V332.135H211.648V331.25H215.299V331.168C215.283 330.887 215.225 330.613 215.123 330.348C215.025 330.082 214.869 329.863 214.654 329.691C214.439 329.52 214.146 329.434 213.775 329.434C213.529 329.434 213.303 329.486 213.096 329.592C212.889 329.693 212.711 329.846 212.562 330.049C212.414 330.252 212.299 330.5 212.217 330.793C212.135 331.086 212.094 331.424 212.094 331.807V332.053C212.094 332.354 212.135 332.637 212.217 332.902C212.303 333.164 212.426 333.395 212.586 333.594C212.75 333.793 212.947 333.949 213.178 334.062C213.412 334.176 213.678 334.232 213.975 334.232C214.357 334.232 214.682 334.154 214.947 333.998C215.213 333.842 215.445 333.633 215.645 333.371L216.301 333.893C216.164 334.1 215.99 334.297 215.779 334.484C215.568 334.672 215.309 334.824 215 334.941C214.695 335.059 214.334 335.117 213.916 335.117ZM219.494 334.021L221.229 328.66H222.336L220.057 335H219.33L219.494 334.021ZM218.047 328.66L219.834 334.051L219.957 335H219.23L216.934 328.66H218.047ZM225.928 335.117C225.486 335.117 225.086 335.043 224.727 334.895C224.371 334.742 224.064 334.529 223.807 334.256C223.553 333.982 223.357 333.658 223.221 333.283C223.084 332.908 223.016 332.498 223.016 332.053V331.807C223.016 331.291 223.092 330.832 223.244 330.43C223.396 330.023 223.604 329.68 223.865 329.398C224.127 329.117 224.424 328.904 224.756 328.76C225.088 328.615 225.432 328.543 225.787 328.543C226.24 328.543 226.631 328.621 226.959 328.777C227.291 328.934 227.562 329.152 227.773 329.434C227.984 329.711 228.141 330.039 228.242 330.418C228.344 330.793 228.395 331.203 228.395 331.648V332.135H223.66V331.25H227.311V331.168C227.295 330.887 227.236 330.613 227.135 330.348C227.037 330.082 226.881 329.863 226.666 329.691C226.451 329.52 226.158 329.434 225.787 329.434C225.541 329.434 225.314 329.486 225.107 329.592C224.9 329.693 224.723 329.846 224.574 330.049C224.426 330.252 224.311 330.5 224.229 330.793C224.146 331.086 224.105 331.424 224.105 331.807V332.053C224.105 332.354 224.146 332.637 224.229 332.902C224.314 333.164 224.438 333.395 224.598 333.594C224.762 333.793 224.959 333.949 225.189 334.062C225.424 334.176 225.689 334.232 225.986 334.232C226.369 334.232 226.693 334.154 226.959 333.998C227.225 333.842 227.457 333.633 227.656 333.371L228.312 333.893C228.176 334.1 228.002 334.297 227.791 334.484C227.58 334.672 227.32 334.824 227.012 334.941C226.707 335.059 226.346 335.117 225.928 335.117ZM233.352 333.318C233.352 333.162 233.316 333.018 233.246 332.885C233.18 332.748 233.041 332.625 232.83 332.516C232.623 332.402 232.311 332.305 231.893 332.223C231.541 332.148 231.223 332.061 230.938 331.959C230.656 331.857 230.416 331.734 230.217 331.59C230.021 331.445 229.871 331.275 229.766 331.08C229.66 330.885 229.607 330.656 229.607 330.395C229.607 330.145 229.662 329.908 229.771 329.686C229.885 329.463 230.043 329.266 230.246 329.094C230.453 328.922 230.701 328.787 230.99 328.689C231.279 328.592 231.602 328.543 231.957 328.543C232.465 328.543 232.898 328.633 233.258 328.812C233.617 328.992 233.893 329.232 234.084 329.533C234.275 329.83 234.371 330.16 234.371 330.523H233.287C233.287 330.348 233.234 330.178 233.129 330.014C233.027 329.846 232.877 329.707 232.678 329.598C232.482 329.488 232.242 329.434 231.957 329.434C231.656 329.434 231.412 329.48 231.225 329.574C231.041 329.664 230.906 329.779 230.82 329.92C230.738 330.061 230.697 330.209 230.697 330.365C230.697 330.482 230.717 330.588 230.756 330.682C230.799 330.771 230.873 330.855 230.979 330.934C231.084 331.008 231.232 331.078 231.424 331.145C231.615 331.211 231.859 331.277 232.156 331.344C232.676 331.461 233.104 331.602 233.439 331.766C233.775 331.93 234.025 332.131 234.189 332.369C234.354 332.607 234.436 332.896 234.436 333.236C234.436 333.514 234.377 333.768 234.26 333.998C234.146 334.229 233.98 334.428 233.762 334.596C233.547 334.76 233.289 334.889 232.988 334.982C232.691 335.072 232.357 335.117 231.986 335.117C231.428 335.117 230.955 335.018 230.568 334.818C230.182 334.619 229.889 334.361 229.689 334.045C229.49 333.729 229.391 333.395 229.391 333.043H230.48C230.496 333.34 230.582 333.576 230.738 333.752C230.895 333.924 231.086 334.047 231.312 334.121C231.539 334.191 231.764 334.227 231.986 334.227C232.283 334.227 232.531 334.188 232.73 334.109C232.934 334.031 233.088 333.924 233.193 333.787C233.299 333.65 233.352 333.494 233.352 333.318Z" fill="#333333"/>
<path d="M264.41 334.021L266.144 328.66H267.251L264.972 335H264.246L264.41 334.021ZM262.962 328.66L264.75 334.051L264.873 335H264.146L261.849 328.66H262.962ZM269.472 328.66V335H268.382V328.66H269.472ZM268.3 326.979C268.3 326.803 268.353 326.654 268.458 326.533C268.568 326.412 268.728 326.352 268.939 326.352C269.146 326.352 269.304 326.412 269.414 326.533C269.527 326.654 269.583 326.803 269.583 326.979C269.583 327.146 269.527 327.291 269.414 327.412C269.304 327.529 269.146 327.588 268.939 327.588C268.728 327.588 268.568 327.529 268.458 327.412C268.353 327.291 268.3 327.146 268.3 326.979ZM273.843 335.117C273.402 335.117 273.001 335.043 272.642 334.895C272.287 334.742 271.98 334.529 271.722 334.256C271.468 333.982 271.273 333.658 271.136 333.283C271 332.908 270.931 332.498 270.931 332.053V331.807C270.931 331.291 271.007 330.832 271.16 330.43C271.312 330.023 271.519 329.68 271.781 329.398C272.042 329.117 272.339 328.904 272.671 328.76C273.003 328.615 273.347 328.543 273.703 328.543C274.156 328.543 274.546 328.621 274.875 328.777C275.207 328.934 275.478 329.152 275.689 329.434C275.9 329.711 276.056 330.039 276.158 330.418C276.259 330.793 276.31 331.203 276.31 331.648V332.135H271.576V331.25H275.226V331.168C275.21 330.887 275.152 330.613 275.05 330.348C274.953 330.082 274.796 329.863 274.582 329.691C274.367 329.52 274.074 329.434 273.703 329.434C273.457 329.434 273.23 329.486 273.023 329.592C272.816 329.693 272.638 329.846 272.49 330.049C272.341 330.252 272.226 330.5 272.144 330.793C272.062 331.086 272.021 331.424 272.021 331.807V332.053C272.021 332.354 272.062 332.637 272.144 332.902C272.23 333.164 272.353 333.395 272.513 333.594C272.677 333.793 272.875 333.949 273.105 334.062C273.339 334.176 273.605 334.232 273.902 334.232C274.285 334.232 274.609 334.154 274.875 333.998C275.14 333.842 275.373 333.633 275.572 333.371L276.228 333.893C276.091 334.1 275.917 334.297 275.707 334.484C275.496 334.672 275.236 334.824 274.927 334.941C274.623 335.059 274.261 335.117 273.843 335.117ZM278.66 329.656V335H277.576V328.66H278.63L278.66 329.656ZM280.64 328.625L280.634 329.633C280.544 329.613 280.458 329.602 280.376 329.598C280.298 329.59 280.208 329.586 280.107 329.586C279.857 329.586 279.636 329.625 279.445 329.703C279.253 329.781 279.091 329.891 278.958 330.031C278.826 330.172 278.72 330.34 278.642 330.535C278.568 330.727 278.519 330.938 278.496 331.168L278.191 331.344C278.191 330.961 278.228 330.602 278.302 330.266C278.38 329.93 278.5 329.633 278.66 329.375C278.82 329.113 279.023 328.91 279.269 328.766C279.519 328.617 279.816 328.543 280.16 328.543C280.238 328.543 280.328 328.553 280.429 328.572C280.531 328.588 280.601 328.605 280.64 328.625ZM282.726 330.014V335H281.642V328.66H282.667L282.726 330.014ZM282.468 331.59L282.017 331.572C282.021 331.139 282.085 330.738 282.21 330.371C282.335 330 282.511 329.678 282.738 329.404C282.964 329.131 283.234 328.92 283.546 328.771C283.863 328.619 284.212 328.543 284.595 328.543C284.908 328.543 285.189 328.586 285.439 328.672C285.689 328.754 285.902 328.887 286.078 329.07C286.257 329.254 286.394 329.492 286.488 329.785C286.582 330.074 286.628 330.428 286.628 330.846V335H285.539V330.834C285.539 330.502 285.49 330.236 285.392 330.037C285.294 329.834 285.152 329.688 284.964 329.598C284.777 329.504 284.546 329.457 284.273 329.457C284.003 329.457 283.757 329.514 283.535 329.627C283.316 329.74 283.126 329.896 282.966 330.096C282.81 330.295 282.687 330.523 282.597 330.781C282.511 331.035 282.468 331.305 282.468 331.59ZM290.906 335.117C290.464 335.117 290.064 335.043 289.705 334.895C289.349 334.742 289.042 334.529 288.785 334.256C288.531 333.982 288.335 333.658 288.199 333.283C288.062 332.908 287.994 332.498 287.994 332.053V331.807C287.994 331.291 288.07 330.832 288.222 330.43C288.375 330.023 288.582 329.68 288.843 329.398C289.105 329.117 289.402 328.904 289.734 328.76C290.066 328.615 290.41 328.543 290.765 328.543C291.218 328.543 291.609 328.621 291.937 328.777C292.269 328.934 292.541 329.152 292.751 329.434C292.962 329.711 293.119 330.039 293.22 330.418C293.322 330.793 293.373 331.203 293.373 331.648V332.135H288.638V331.25H292.289V331.168C292.273 330.887 292.214 330.613 292.113 330.348C292.015 330.082 291.859 329.863 291.644 329.691C291.429 329.52 291.136 329.434 290.765 329.434C290.519 329.434 290.292 329.486 290.085 329.592C289.878 329.693 289.701 329.846 289.552 330.049C289.404 330.252 289.289 330.5 289.207 330.793C289.125 331.086 289.083 331.424 289.083 331.807V332.053C289.083 332.354 289.125 332.637 289.207 332.902C289.292 333.164 289.416 333.395 289.576 333.594C289.74 333.793 289.937 333.949 290.167 334.062C290.402 334.176 290.667 334.232 290.964 334.232C291.347 334.232 291.671 334.154 291.937 333.998C292.203 333.842 292.435 333.633 292.634 333.371L293.291 333.893C293.154 334.1 292.98 334.297 292.769 334.484C292.558 334.672 292.298 334.824 291.99 334.941C291.685 335.059 291.324 335.117 290.906 335.117ZM298.33 333.318C298.33 333.162 298.294 333.018 298.224 332.885C298.158 332.748 298.019 332.625 297.808 332.516C297.601 332.402 297.289 332.305 296.871 332.223C296.519 332.148 296.201 332.061 295.916 331.959C295.634 331.857 295.394 331.734 295.195 331.59C295 331.445 294.849 331.275 294.744 331.08C294.638 330.885 294.585 330.656 294.585 330.395C294.585 330.145 294.64 329.908 294.75 329.686C294.863 329.463 295.021 329.266 295.224 329.094C295.431 328.922 295.679 328.787 295.968 328.689C296.257 328.592 296.58 328.543 296.935 328.543C297.443 328.543 297.876 328.633 298.236 328.812C298.595 328.992 298.871 329.232 299.062 329.533C299.253 329.83 299.349 330.16 299.349 330.523H298.265C298.265 330.348 298.212 330.178 298.107 330.014C298.005 329.846 297.855 329.707 297.656 329.598C297.46 329.488 297.22 329.434 296.935 329.434C296.634 329.434 296.39 329.48 296.203 329.574C296.019 329.664 295.884 329.779 295.798 329.92C295.716 330.061 295.675 330.209 295.675 330.365C295.675 330.482 295.695 330.588 295.734 330.682C295.777 330.771 295.851 330.855 295.957 330.934C296.062 331.008 296.21 331.078 296.402 331.145C296.593 331.211 296.837 331.277 297.134 331.344C297.654 331.461 298.082 331.602 298.417 331.766C298.753 331.93 299.003 332.131 299.167 332.369C299.332 332.607 299.414 332.896 299.414 333.236C299.414 333.514 299.355 333.768 299.238 333.998C299.125 334.229 298.958 334.428 298.74 334.596C298.525 334.76 298.267 334.889 297.966 334.982C297.669 335.072 297.335 335.117 296.964 335.117C296.406 335.117 295.933 335.018 295.546 334.818C295.16 334.619 294.867 334.361 294.667 334.045C294.468 333.729 294.369 333.395 294.369 333.043H295.458C295.474 333.34 295.56 333.576 295.716 333.752C295.873 333.924 296.064 334.047 296.291 334.121C296.517 334.191 296.742 334.227 296.964 334.227C297.261 334.227 297.509 334.188 297.708 334.109C297.912 334.031 298.066 333.924 298.171 333.787C298.277 333.65 298.33 333.494 298.33 333.318Z" fill="#333333"/>
<path d="M327.379 333.318C327.379 333.162 327.344 333.018 327.274 332.885C327.208 332.748 327.069 332.625 326.858 332.516C326.651 332.402 326.338 332.305 325.92 332.223C325.569 332.148 325.25 332.061 324.965 331.959C324.684 331.857 324.444 331.734 324.245 331.59C324.049 331.445 323.899 331.275 323.793 331.08C323.688 330.885 323.635 330.656 323.635 330.395C323.635 330.145 323.69 329.908 323.799 329.686C323.913 329.463 324.071 329.266 324.274 329.094C324.481 328.922 324.729 328.787 325.018 328.689C325.307 328.592 325.629 328.543 325.985 328.543C326.493 328.543 326.926 328.633 327.286 328.812C327.645 328.992 327.92 329.232 328.112 329.533C328.303 329.83 328.399 330.16 328.399 330.523H327.315C327.315 330.348 327.262 330.178 327.157 330.014C327.055 329.846 326.905 329.707 326.706 329.598C326.51 329.488 326.27 329.434 325.985 329.434C325.684 329.434 325.44 329.48 325.252 329.574C325.069 329.664 324.934 329.779 324.848 329.92C324.766 330.061 324.725 330.209 324.725 330.365C324.725 330.482 324.745 330.588 324.784 330.682C324.827 330.771 324.901 330.855 325.006 330.934C325.112 331.008 325.26 331.078 325.452 331.145C325.643 331.211 325.887 331.277 326.184 331.344C326.704 331.461 327.131 331.602 327.467 331.766C327.803 331.93 328.053 332.131 328.217 332.369C328.381 332.607 328.463 332.896 328.463 333.236C328.463 333.514 328.405 333.768 328.288 333.998C328.174 334.229 328.008 334.428 327.79 334.596C327.575 334.76 327.317 334.889 327.016 334.982C326.719 335.072 326.385 335.117 326.014 335.117C325.456 335.117 324.983 335.018 324.596 334.818C324.209 334.619 323.917 334.361 323.717 334.045C323.518 333.729 323.418 333.395 323.418 333.043H324.508C324.524 333.34 324.61 333.576 324.766 333.752C324.922 333.924 325.114 334.047 325.34 334.121C325.567 334.191 325.792 334.227 326.014 334.227C326.311 334.227 326.559 334.188 326.758 334.109C326.961 334.031 327.116 333.924 327.221 333.787C327.327 333.65 327.379 333.494 327.379 333.318ZM333.625 333.916V330.652C333.625 330.402 333.575 330.186 333.473 330.002C333.375 329.814 333.227 329.67 333.028 329.568C332.829 329.467 332.583 329.416 332.29 329.416C332.016 329.416 331.776 329.463 331.569 329.557C331.366 329.65 331.206 329.773 331.088 329.926C330.975 330.078 330.918 330.242 330.918 330.418H329.834C329.834 330.191 329.893 329.967 330.01 329.744C330.127 329.521 330.295 329.32 330.514 329.141C330.737 328.957 331.002 328.812 331.311 328.707C331.624 328.598 331.971 328.543 332.354 328.543C332.815 328.543 333.221 328.621 333.573 328.777C333.928 328.934 334.206 329.17 334.405 329.486C334.608 329.799 334.709 330.191 334.709 330.664V333.617C334.709 333.828 334.727 334.053 334.762 334.291C334.801 334.529 334.858 334.734 334.932 334.906V335H333.801C333.747 334.875 333.704 334.709 333.672 334.502C333.641 334.291 333.625 334.096 333.625 333.916ZM333.813 331.156L333.825 331.918H332.729C332.42 331.918 332.145 331.943 331.903 331.994C331.661 332.041 331.458 332.113 331.293 332.211C331.129 332.309 331.004 332.432 330.918 332.58C330.833 332.725 330.79 332.895 330.79 333.09C330.79 333.289 330.834 333.471 330.924 333.635C331.014 333.799 331.149 333.93 331.329 334.027C331.512 334.121 331.737 334.168 332.002 334.168C332.334 334.168 332.627 334.098 332.881 333.957C333.135 333.816 333.336 333.645 333.485 333.441C333.637 333.238 333.719 333.041 333.731 332.85L334.194 333.371C334.167 333.535 334.092 333.717 333.971 333.916C333.85 334.115 333.688 334.307 333.485 334.49C333.286 334.67 333.047 334.82 332.77 334.941C332.497 335.059 332.188 335.117 331.844 335.117C331.415 335.117 331.038 335.033 330.713 334.865C330.393 334.697 330.143 334.473 329.963 334.191C329.788 333.906 329.7 333.588 329.7 333.236C329.7 332.896 329.766 332.598 329.899 332.34C330.032 332.078 330.223 331.861 330.473 331.689C330.723 331.514 331.024 331.381 331.375 331.291C331.727 331.201 332.12 331.156 332.553 331.156H333.813ZM331.874 327.723L333.01 326H334.317L332.747 327.723H331.874ZM336.409 326H337.499V333.77L337.405 335H336.409V326ZM341.782 331.777V331.9C341.782 332.361 341.727 332.789 341.618 333.184C341.508 333.574 341.348 333.914 341.137 334.203C340.926 334.492 340.668 334.717 340.364 334.877C340.059 335.037 339.709 335.117 339.315 335.117C338.913 335.117 338.559 335.049 338.254 334.912C337.954 334.771 337.7 334.57 337.493 334.309C337.286 334.047 337.12 333.73 336.995 333.359C336.874 332.988 336.79 332.57 336.743 332.105V331.566C336.79 331.098 336.874 330.678 336.995 330.307C337.12 329.936 337.286 329.619 337.493 329.357C337.7 329.092 337.954 328.891 338.254 328.754C338.555 328.613 338.905 328.543 339.303 328.543C339.702 328.543 340.055 328.621 340.364 328.777C340.672 328.93 340.93 329.148 341.137 329.434C341.348 329.719 341.508 330.061 341.618 330.459C341.727 330.854 341.782 331.293 341.782 331.777ZM340.692 331.9V331.777C340.692 331.461 340.663 331.164 340.604 330.887C340.545 330.605 340.452 330.359 340.323 330.148C340.194 329.934 340.024 329.766 339.813 329.645C339.602 329.52 339.342 329.457 339.034 329.457C338.76 329.457 338.522 329.504 338.319 329.598C338.12 329.691 337.95 329.818 337.809 329.979C337.668 330.135 337.553 330.314 337.463 330.518C337.377 330.717 337.313 330.924 337.27 331.139V332.551C337.333 332.824 337.434 333.088 337.575 333.342C337.719 333.592 337.911 333.797 338.149 333.957C338.391 334.117 338.69 334.197 339.045 334.197C339.338 334.197 339.588 334.139 339.795 334.021C340.006 333.9 340.176 333.734 340.305 333.523C340.438 333.312 340.536 333.068 340.598 332.791C340.661 332.514 340.692 332.217 340.692 331.9ZM346.891 333.916V330.652C346.891 330.402 346.84 330.186 346.739 330.002C346.641 329.814 346.493 329.67 346.293 329.568C346.094 329.467 345.848 329.416 345.555 329.416C345.282 329.416 345.042 329.463 344.834 329.557C344.631 329.65 344.471 329.773 344.354 329.926C344.241 330.078 344.184 330.242 344.184 330.418H343.1C343.1 330.191 343.159 329.967 343.276 329.744C343.393 329.521 343.561 329.32 343.78 329.141C344.002 328.957 344.268 328.812 344.577 328.707C344.889 328.598 345.237 328.543 345.62 328.543C346.081 328.543 346.487 328.621 346.838 328.777C347.194 328.934 347.471 329.17 347.67 329.486C347.874 329.799 347.975 330.191 347.975 330.664V333.617C347.975 333.828 347.993 334.053 348.028 334.291C348.067 334.529 348.124 334.734 348.198 334.906V335H347.067C347.012 334.875 346.969 334.709 346.938 334.502C346.907 334.291 346.891 334.096 346.891 333.916ZM347.079 331.156L347.09 331.918H345.995C345.686 331.918 345.411 331.943 345.168 331.994C344.926 332.041 344.723 332.113 344.559 332.211C344.395 332.309 344.27 332.432 344.184 332.58C344.098 332.725 344.055 332.895 344.055 333.09C344.055 333.289 344.1 333.471 344.19 333.635C344.28 333.799 344.415 333.93 344.594 334.027C344.778 334.121 345.002 334.168 345.268 334.168C345.6 334.168 345.893 334.098 346.147 333.957C346.401 333.816 346.602 333.645 346.75 333.441C346.903 333.238 346.985 333.041 346.997 332.85L347.459 333.371C347.432 333.535 347.358 333.717 347.237 333.916C347.116 334.115 346.954 334.307 346.75 334.49C346.551 334.67 346.313 334.82 346.036 334.941C345.762 335.059 345.454 335.117 345.11 335.117C344.68 335.117 344.303 335.033 343.979 334.865C343.659 334.697 343.409 334.473 343.229 334.191C343.053 333.906 342.965 333.588 342.965 333.236C342.965 332.896 343.032 332.598 343.165 332.34C343.297 332.078 343.489 331.861 343.739 331.689C343.989 331.514 344.29 331.381 344.641 331.291C344.993 331.201 345.385 331.156 345.819 331.156H347.079ZM353.676 333.77V326H354.766V335H353.77L353.676 333.77ZM349.411 331.9V331.777C349.411 331.293 349.469 330.854 349.586 330.459C349.708 330.061 349.877 329.719 350.096 329.434C350.319 329.148 350.583 328.93 350.887 328.777C351.196 328.621 351.54 328.543 351.918 328.543C352.317 328.543 352.665 328.613 352.961 328.754C353.262 328.891 353.516 329.092 353.723 329.357C353.934 329.619 354.1 329.936 354.221 330.307C354.342 330.678 354.426 331.098 354.473 331.566V332.105C354.43 332.57 354.346 332.988 354.221 333.359C354.1 333.73 353.934 334.047 353.723 334.309C353.516 334.57 353.262 334.771 352.961 334.912C352.661 335.049 352.309 335.117 351.907 335.117C351.536 335.117 351.196 335.037 350.887 334.877C350.583 334.717 350.319 334.492 350.096 334.203C349.877 333.914 349.708 333.574 349.586 333.184C349.469 332.789 349.411 332.361 349.411 331.9ZM350.5 331.777V331.9C350.5 332.217 350.532 332.514 350.594 332.791C350.661 333.068 350.762 333.312 350.899 333.523C351.036 333.734 351.209 333.9 351.42 334.021C351.631 334.139 351.883 334.197 352.176 334.197C352.536 334.197 352.831 334.121 353.061 333.969C353.295 333.816 353.483 333.615 353.624 333.365C353.764 333.115 353.874 332.844 353.952 332.551V331.139C353.905 330.924 353.836 330.717 353.747 330.518C353.661 330.314 353.547 330.135 353.407 329.979C353.27 329.818 353.1 329.691 352.897 329.598C352.698 329.504 352.461 329.457 352.188 329.457C351.891 329.457 351.635 329.52 351.42 329.645C351.209 329.766 351.036 329.934 350.899 330.148C350.762 330.359 350.661 330.605 350.594 330.887C350.532 331.164 350.5 331.461 350.5 331.777ZM356.167 331.9V331.766C356.167 331.309 356.233 330.885 356.366 330.494C356.499 330.1 356.69 329.758 356.94 329.469C357.19 329.176 357.493 328.949 357.848 328.789C358.204 328.625 358.602 328.543 359.043 328.543C359.489 328.543 359.889 328.625 360.245 328.789C360.604 328.949 360.909 329.176 361.159 329.469C361.413 329.758 361.606 330.1 361.739 330.494C361.872 330.885 361.938 331.309 361.938 331.766V331.9C361.938 332.357 361.872 332.781 361.739 333.172C361.606 333.562 361.413 333.904 361.159 334.197C360.909 334.486 360.606 334.713 360.25 334.877C359.899 335.037 359.5 335.117 359.055 335.117C358.61 335.117 358.209 335.037 357.854 334.877C357.499 334.713 357.194 334.486 356.94 334.197C356.69 333.904 356.499 333.562 356.366 333.172C356.233 332.781 356.167 332.357 356.167 331.9ZM357.25 331.766V331.9C357.25 332.217 357.288 332.516 357.362 332.797C357.436 333.074 357.547 333.32 357.696 333.535C357.848 333.75 358.038 333.92 358.264 334.045C358.491 334.166 358.754 334.227 359.055 334.227C359.352 334.227 359.612 334.166 359.834 334.045C360.061 333.92 360.249 333.75 360.397 333.535C360.545 333.32 360.657 333.074 360.731 332.797C360.809 332.516 360.848 332.217 360.848 331.9V331.766C360.848 331.453 360.809 331.158 360.731 330.881C360.657 330.6 360.543 330.352 360.391 330.137C360.243 329.918 360.055 329.746 359.829 329.621C359.606 329.496 359.344 329.434 359.043 329.434C358.747 329.434 358.485 329.496 358.258 329.621C358.036 329.746 357.848 329.918 357.696 330.137C357.547 330.352 357.436 330.6 357.362 330.881C357.288 331.158 357.25 331.453 357.25 331.766Z" fill="#333333"/>
<path d="M386.186 333.77V326H387.275V335H386.279L386.186 333.77ZM381.92 331.9V331.777C381.92 331.293 381.979 330.854 382.096 330.459C382.217 330.061 382.387 329.719 382.605 329.434C382.828 329.148 383.092 328.93 383.396 328.777C383.705 328.621 384.049 328.543 384.428 328.543C384.826 328.543 385.174 328.613 385.471 328.754C385.771 328.891 386.025 329.092 386.232 329.357C386.443 329.619 386.609 329.936 386.73 330.307C386.852 330.678 386.936 331.098 386.982 331.566V332.105C386.939 332.57 386.855 332.988 386.73 333.359C386.609 333.73 386.443 334.047 386.232 334.309C386.025 334.57 385.771 334.771 385.471 334.912C385.17 335.049 384.818 335.117 384.416 335.117C384.045 335.117 383.705 335.037 383.396 334.877C383.092 334.717 382.828 334.492 382.605 334.203C382.387 333.914 382.217 333.574 382.096 333.184C381.979 332.789 381.92 332.361 381.92 331.9ZM383.01 331.777V331.9C383.01 332.217 383.041 332.514 383.104 332.791C383.17 333.068 383.271 333.312 383.408 333.523C383.545 333.734 383.719 333.9 383.93 334.021C384.141 334.139 384.393 334.197 384.686 334.197C385.045 334.197 385.34 334.121 385.57 333.969C385.805 333.816 385.992 333.615 386.133 333.365C386.273 333.115 386.383 332.844 386.461 332.551V331.139C386.414 330.924 386.346 330.717 386.256 330.518C386.17 330.314 386.057 330.135 385.916 329.979C385.779 329.818 385.609 329.691 385.406 329.598C385.207 329.504 384.971 329.457 384.697 329.457C384.4 329.457 384.145 329.52 383.93 329.645C383.719 329.766 383.545 329.934 383.408 330.148C383.271 330.359 383.17 330.605 383.104 330.887C383.041 331.164 383.01 331.461 383.01 331.777ZM388.676 331.9V331.766C388.676 331.309 388.742 330.885 388.875 330.494C389.008 330.1 389.199 329.758 389.449 329.469C389.699 329.176 390.002 328.949 390.357 328.789C390.713 328.625 391.111 328.543 391.553 328.543C391.998 328.543 392.398 328.625 392.754 328.789C393.113 328.949 393.418 329.176 393.668 329.469C393.922 329.758 394.115 330.1 394.248 330.494C394.381 330.885 394.447 331.309 394.447 331.766V331.9C394.447 332.357 394.381 332.781 394.248 333.172C394.115 333.562 393.922 333.904 393.668 334.197C393.418 334.486 393.115 334.713 392.76 334.877C392.408 335.037 392.01 335.117 391.564 335.117C391.119 335.117 390.719 335.037 390.363 334.877C390.008 334.713 389.703 334.486 389.449 334.197C389.199 333.904 389.008 333.562 388.875 333.172C388.742 332.781 388.676 332.357 388.676 331.9ZM389.76 331.766V331.9C389.76 332.217 389.797 332.516 389.871 332.797C389.945 333.074 390.057 333.32 390.205 333.535C390.357 333.75 390.547 333.92 390.773 334.045C391 334.166 391.264 334.227 391.564 334.227C391.861 334.227 392.121 334.166 392.344 334.045C392.57 333.92 392.758 333.75 392.906 333.535C393.055 333.32 393.166 333.074 393.24 332.797C393.318 332.516 393.357 332.217 393.357 331.9V331.766C393.357 331.453 393.318 331.158 393.24 330.881C393.166 330.6 393.053 330.352 392.9 330.137C392.752 329.918 392.564 329.746 392.338 329.621C392.115 329.496 391.854 329.434 391.553 329.434C391.256 329.434 390.994 329.496 390.768 329.621C390.545 329.746 390.357 329.918 390.205 330.137C390.057 330.352 389.945 330.6 389.871 330.881C389.797 331.158 389.76 331.453 389.76 331.766ZM396.885 329.92V335H395.795V328.66H396.826L396.885 329.92ZM396.662 331.59L396.158 331.572C396.162 331.139 396.219 330.738 396.328 330.371C396.438 330 396.6 329.678 396.814 329.404C397.029 329.131 397.297 328.92 397.617 328.771C397.938 328.619 398.309 328.543 398.73 328.543C399.027 328.543 399.301 328.586 399.551 328.672C399.801 328.754 400.018 328.885 400.201 329.064C400.385 329.244 400.527 329.475 400.629 329.756C400.73 330.037 400.781 330.377 400.781 330.775V335H399.697V330.828C399.697 330.496 399.641 330.23 399.527 330.031C399.418 329.832 399.262 329.688 399.059 329.598C398.855 329.504 398.617 329.457 398.344 329.457C398.023 329.457 397.756 329.514 397.541 329.627C397.326 329.74 397.154 329.896 397.025 330.096C396.896 330.295 396.803 330.523 396.744 330.781C396.689 331.035 396.662 331.305 396.662 331.59ZM400.77 330.992L400.043 331.215C400.047 330.867 400.104 330.533 400.213 330.213C400.326 329.893 400.488 329.607 400.699 329.357C400.914 329.107 401.178 328.91 401.49 328.766C401.803 328.617 402.16 328.543 402.562 328.543C402.902 328.543 403.203 328.588 403.465 328.678C403.73 328.768 403.953 328.906 404.133 329.094C404.316 329.277 404.455 329.514 404.549 329.803C404.643 330.092 404.689 330.436 404.689 330.834V335H403.6V330.822C403.6 330.467 403.543 330.191 403.43 329.996C403.32 329.797 403.164 329.658 402.961 329.58C402.762 329.498 402.523 329.457 402.246 329.457C402.008 329.457 401.797 329.498 401.613 329.58C401.43 329.662 401.275 329.775 401.15 329.92C401.025 330.061 400.93 330.223 400.863 330.406C400.801 330.59 400.77 330.785 400.77 330.992ZM407.508 328.66V335H406.418V328.66H407.508ZM406.336 326.979C406.336 326.803 406.389 326.654 406.494 326.533C406.604 326.412 406.764 326.352 406.975 326.352C407.182 326.352 407.34 326.412 407.449 326.533C407.562 326.654 407.619 326.803 407.619 326.979C407.619 327.146 407.562 327.291 407.449 327.412C407.34 327.529 407.182 327.588 406.975 327.588C406.764 327.588 406.604 327.529 406.494 327.412C406.389 327.291 406.336 327.146 406.336 326.979ZM410.332 330.014V335H409.248V328.66H410.273L410.332 330.014ZM410.074 331.59L409.623 331.572C409.627 331.139 409.691 330.738 409.816 330.371C409.941 330 410.117 329.678 410.344 329.404C410.57 329.131 410.84 328.92 411.152 328.771C411.469 328.619 411.818 328.543 412.201 328.543C412.514 328.543 412.795 328.586 413.045 328.672C413.295 328.754 413.508 328.887 413.684 329.07C413.863 329.254 414 329.492 414.094 329.785C414.188 330.074 414.234 330.428 414.234 330.846V335H413.145V330.834C413.145 330.502 413.096 330.236 412.998 330.037C412.9 329.834 412.758 329.688 412.57 329.598C412.383 329.504 412.152 329.457 411.879 329.457C411.609 329.457 411.363 329.514 411.141 329.627C410.922 329.74 410.732 329.896 410.572 330.096C410.416 330.295 410.293 330.523 410.203 330.781C410.117 331.035 410.074 331.305 410.074 331.59ZM419.988 328.66H420.973V334.865C420.973 335.424 420.859 335.9 420.633 336.295C420.406 336.689 420.09 336.988 419.684 337.191C419.281 337.398 418.816 337.502 418.289 337.502C418.07 337.502 417.812 337.467 417.516 337.396C417.223 337.33 416.934 337.215 416.648 337.051C416.367 336.891 416.131 336.674 415.939 336.4L416.508 335.756C416.773 336.076 417.051 336.299 417.34 336.424C417.633 336.549 417.922 336.611 418.207 336.611C418.551 336.611 418.848 336.547 419.098 336.418C419.348 336.289 419.541 336.098 419.678 335.844C419.818 335.594 419.889 335.285 419.889 334.918V330.055L419.988 328.66ZM415.623 331.9V331.777C415.623 331.293 415.68 330.854 415.793 330.459C415.91 330.061 416.076 329.719 416.291 329.434C416.51 329.148 416.773 328.93 417.082 328.777C417.391 328.621 417.738 328.543 418.125 328.543C418.523 328.543 418.871 328.613 419.168 328.754C419.469 328.891 419.723 329.092 419.93 329.357C420.141 329.619 420.307 329.936 420.428 330.307C420.549 330.678 420.633 331.098 420.68 331.566V332.105C420.637 332.57 420.553 332.988 420.428 333.359C420.307 333.73 420.141 334.047 419.93 334.309C419.723 334.57 419.469 334.771 419.168 334.912C418.867 335.049 418.516 335.117 418.113 335.117C417.734 335.117 417.391 335.037 417.082 334.877C416.777 334.717 416.516 334.492 416.297 334.203C416.078 333.914 415.91 333.574 415.793 333.184C415.68 332.789 415.623 332.361 415.623 331.9ZM416.707 331.777V331.9C416.707 332.217 416.738 332.514 416.801 332.791C416.867 333.068 416.967 333.312 417.1 333.523C417.236 333.734 417.41 333.9 417.621 334.021C417.832 334.139 418.084 334.197 418.377 334.197C418.736 334.197 419.033 334.121 419.268 333.969C419.502 333.816 419.688 333.615 419.824 333.365C419.965 333.115 420.074 332.844 420.152 332.551V331.139C420.109 330.924 420.043 330.717 419.953 330.518C419.867 330.314 419.754 330.135 419.613 329.979C419.477 329.818 419.307 329.691 419.104 329.598C418.9 329.504 418.662 329.457 418.389 329.457C418.092 329.457 417.836 329.52 417.621 329.645C417.41 329.766 417.236 329.934 417.1 330.148C416.967 330.359 416.867 330.605 416.801 330.887C416.738 331.164 416.707 331.461 416.707 331.777ZM422.332 331.9V331.766C422.332 331.309 422.398 330.885 422.531 330.494C422.664 330.1 422.855 329.758 423.105 329.469C423.355 329.176 423.658 328.949 424.014 328.789C424.369 328.625 424.768 328.543 425.209 328.543C425.654 328.543 426.055 328.625 426.41 328.789C426.77 328.949 427.074 329.176 427.324 329.469C427.578 329.758 427.771 330.1 427.904 330.494C428.037 330.885 428.104 331.309 428.104 331.766V331.9C428.104 332.357 428.037 332.781 427.904 333.172C427.771 333.562 427.578 333.904 427.324 334.197C427.074 334.486 426.771 334.713 426.416 334.877C426.064 335.037 425.666 335.117 425.221 335.117C424.775 335.117 424.375 335.037 424.02 334.877C423.664 334.713 423.359 334.486 423.105 334.197C422.855 333.904 422.664 333.562 422.531 333.172C422.398 332.781 422.332 332.357 422.332 331.9ZM423.416 331.766V331.9C423.416 332.217 423.453 332.516 423.527 332.797C423.602 333.074 423.713 333.32 423.861 333.535C424.014 333.75 424.203 333.92 424.43 334.045C424.656 334.166 424.92 334.227 425.221 334.227C425.518 334.227 425.777 334.166 426 334.045C426.227 333.92 426.414 333.75 426.562 333.535C426.711 333.32 426.822 333.074 426.896 332.797C426.975 332.516 427.014 332.217 427.014 331.9V331.766C427.014 331.453 426.975 331.158 426.896 330.881C426.822 330.6 426.709 330.352 426.557 330.137C426.408 329.918 426.221 329.746 425.994 329.621C425.771 329.496 425.51 329.434 425.209 329.434C424.912 329.434 424.65 329.496 424.424 329.621C424.201 329.746 424.014 329.918 423.861 330.137C423.713 330.352 423.602 330.6 423.527 330.881C423.453 331.158 423.416 331.453 423.416 331.766Z" fill="#333333"/>
<path opacity="0.2" fill-rule="evenodd" clip-rule="evenodd" d="M31 286.9L93.3333 224.7L155.667 162.5L218 100.3L280.333 255.8L342.667 193.6L405 131.4V318H31V286.9Z" fill="#0E9CFF"/>
<path d="M31 286.9L93.3333 224.7L155.667 162.5L218 100.3L280.333 255.8L342.667 193.6L405 131.4" stroke="#0E9CFF" stroke-width="2" stroke-linejoin="round"/>
<circle cx="31" cy="286.9" r="3.5" fill="white" stroke="#0E9CFF" stroke-width="2"/>
<circle cx="93.3335" cy="224.7" r="3.5" fill="white" stroke="#0E9CFF" stroke-width="2"/>
<circle cx="155.667" cy="162.5" r="3.5" fill="white" stroke="#0E9CFF" stroke-width="2"/>
<circle cx="218" cy="100.3" r="3.5" fill="white" stroke="#0E9CFF" stroke-width="2"/>
<circle cx="280.333" cy="255.8" r="3.5" fill="white" stroke="#0E9CFF" stroke-width="2"/>
<circle cx="342.667" cy="193.6" r="3.5" fill="white" stroke="#0E9CFF" stroke-width="2"/>
<circle cx="405" cy="131.4" r="3.5" fill="white" stroke="#0E9CFF" stroke-width="2"/>
</svg>
