<svg width="35" height="21" viewBox="0 0 35 21" fill="none" xmlns="http://www.w3.org/2000/svg">
<path d="M34.86 1.08448C34.6825 0.657071 34.3428 0.317428 33.9153 0.139932C33.705 0.0503039 33.4791 0.00276364 33.2505 0H24.503C24.039 0 23.5941 0.184286 23.266 0.512316C22.9379 0.840346 22.7536 1.28525 22.7536 1.74915C22.7536 2.21306 22.9379 2.65796 23.266 2.98599C23.5941 3.31402 24.039 3.49831 24.503 3.49831H29.0342L19.2546 13.2761L13.4987 7.50387C13.3361 7.33993 13.1426 7.2098 12.9294 7.121C12.7162 7.0322 12.4875 6.98648 12.2566 6.98648C12.0256 6.98648 11.797 7.0322 11.5838 7.121C11.3706 7.2098 11.1771 7.33993 11.0145 7.50387L0.517497 17.9988C0.35352 18.1614 0.223368 18.3549 0.134548 18.568C0.0457287 18.7812 0 19.0098 0 19.2407C0 19.4716 0.0457287 19.7002 0.134548 19.9134C0.223368 20.1265 0.35352 20.32 0.517497 20.4826C0.680135 20.6465 0.873631 20.7767 1.08682 20.8655C1.30001 20.9543 1.52868 21 1.75964 21C1.99059 21 2.21926 20.9543 2.43245 20.8655C2.64564 20.7767 2.83914 20.6465 3.00178 20.4826L12.2566 11.2121L18.0124 16.9843C18.1751 17.1482 18.3686 17.2784 18.5818 17.3672C18.7949 17.456 19.0236 17.5017 19.2546 17.5017C19.4855 17.5017 19.7142 17.456 19.9274 17.3672C20.1406 17.2784 20.3341 17.1482 20.4967 16.9843L31.501 5.96462V10.4949C31.501 10.9588 31.6853 11.4037 32.0134 11.7318C32.3415 12.0598 32.7865 12.2441 33.2505 12.2441C33.7145 12.2441 34.1595 12.0598 34.4876 11.7318C34.8157 11.4037 35 10.9588 35 10.4949V1.74915C34.9972 1.52058 34.9497 1.29476 34.86 1.08448Z" fill="white"/>
</svg>
