<svg width="90" height="77" viewBox="0 0 90 77" fill="none" xmlns="http://www.w3.org/2000/svg">
<path d="M32.1704 13.5213C32.1704 6.51657 37.8489 0.838135 44.8535 0.838135C51.8582 0.838135 57.5366 6.51657 57.5366 13.5213C57.5366 20.5259 51.8582 26.2044 44.8535 26.2044C37.8489 26.2044 32.1704 20.5259 32.1704 13.5213ZM44.8535 7.18602C41.3547 7.18602 38.5183 10.0224 38.5183 13.5213C38.5183 17.0201 41.3547 19.8565 44.8535 19.8565C48.3524 19.8565 51.1887 17.0201 51.1887 13.5213C51.1887 10.0224 48.3524 7.18602 44.8535 7.18602Z" fill="#6D82EC"/>
<path d="M63.8972 16.695C63.8972 11.4363 68.1605 7.17322 73.419 7.17322C78.6776 7.17322 82.9409 11.4363 82.9409 16.695C82.9409 21.9538 78.6776 26.2169 73.419 26.2169C68.1605 26.2169 63.8972 21.9538 63.8972 16.695ZM73.419 13.5211C71.6664 13.5211 70.2451 14.9421 70.2451 16.695C70.2451 18.448 71.6664 19.869 73.419 19.869C75.1717 19.869 76.593 18.448 76.593 16.695C76.593 14.9421 75.1717 13.5211 73.419 13.5211Z" fill="#6D82EC"/>
<path d="M16.2884 7.17322C11.0297 7.17322 6.7666 11.4363 6.7666 16.695C6.7666 21.9538 11.0297 26.2169 16.2884 26.2169C21.5472 26.2169 25.8103 21.9538 25.8103 16.695C25.8103 11.4363 21.5472 7.17322 16.2884 7.17322ZM13.1145 16.695C13.1145 14.9421 14.5355 13.5211 16.2884 13.5211C18.0413 13.5211 19.4624 14.9421 19.4624 16.695C19.4624 18.448 18.0413 19.869 16.2884 19.869C14.5355 19.869 13.1145 18.448 13.1145 16.695Z" fill="#6D82EC"/>
<path d="M21.1606 32.5629C20.0803 34.4303 19.4621 36.5983 19.4621 38.9108H6.76634V54.7824C6.76634 60.0417 11.0294 64.3043 16.2882 64.3043C17.6335 64.3043 18.9137 64.0256 20.074 63.5222C20.5444 65.6259 21.2758 67.6306 22.2325 69.5013C20.3966 70.2434 18.3901 70.6522 16.2882 70.6522C7.52358 70.6522 0.418457 63.547 0.418457 54.7824V38.9108C0.418457 35.4049 3.26053 32.5629 6.76634 32.5629H21.1606Z" fill="#6D82EC"/>
<path d="M67.4758 69.5013C69.3116 70.2434 71.3182 70.6522 73.42 70.6522C82.1845 70.6522 89.2897 63.547 89.2897 54.7824V38.9108C89.2897 35.4049 86.4478 32.5629 82.9418 32.5629H68.5474C69.6278 34.4303 70.2461 36.5983 70.2461 38.9108L82.9418 38.9108V54.7824C82.9418 60.0417 78.6786 64.3043 73.42 64.3043C72.0749 64.3043 70.7945 64.0256 69.6341 63.5222C69.1637 65.6259 68.4325 67.6306 67.4758 69.5013Z" fill="#6D82EC"/>
<path d="M32.1577 32.5629C28.6519 32.5629 25.8098 35.4049 25.8098 38.9108V57.9564C25.8098 68.4742 34.336 77 44.8535 77C55.371 77 63.8971 68.4742 63.8971 57.9564V38.9108C63.8971 35.4049 61.0552 32.5629 57.5493 32.5629H32.1577ZM32.1577 38.9108H57.5493V57.9564C57.5493 64.9683 51.8652 70.6522 44.8535 70.6522C37.8418 70.6522 32.1577 64.9683 32.1577 57.9564V38.9108Z" fill="#6D82EC"/>
</svg>
