<svg width="22" height="19" viewBox="0 0 22 19" fill="none" xmlns="http://www.w3.org/2000/svg">
<path d="M7.18527 0L6.95012 0.40483L0.261283 11.6321L0 12.0639L0.235154 12.5227L3.57957 18.5682L3.81473 19H18.1853L18.4204 18.5682L21.7648 12.5227L22 12.0639L21.7387 11.6321L15.0499 0.40483L14.8147 0H7.18527ZM9.14489 1.72727H13.8741L19.5439 11.2273H14.8147L9.14489 1.72727ZM7.65558 2.50994L10.1378 6.69318L4.33729 16.4361L1.93349 12.0909L7.65558 2.50994ZM11.1306 8.33949L12.8551 11.2273H9.40618L11.1306 8.33949ZM8.38717 12.9545H19.5962L17.1924 17.2727H5.80048L8.38717 12.9545Z" fill="#565656"/>
</svg>
