<svg width="28" height="49" viewBox="0 0 28 49" fill="none" xmlns="http://www.w3.org/2000/svg">
<path d="M0 0H28V49L14 41.5435L0 49V24.287V0Z" fill="#56E976"/>
<path d="M11.6249 32V21.8182H17.73V22.9119H12.8578V26.3523H17.2726V27.446H12.8578V32H11.6249Z" fill="black"/>
<path d="M11.6249 32H10.6249V33H11.6249V32ZM11.6249 21.8182V20.8182H10.6249V21.8182H11.6249ZM17.73 21.8182H18.73V20.8182H17.73V21.8182ZM17.73 22.9119V23.9119H18.73V22.9119H17.73ZM12.8578 22.9119V21.9119H11.8578V22.9119H12.8578ZM12.8578 26.3523H11.8578V27.3523H12.8578V26.3523ZM17.2726 26.3523H18.2726V25.3523H17.2726V26.3523ZM17.2726 27.446V28.446H18.2726V27.446H17.2726ZM12.8578 27.446V26.446H11.8578V27.446H12.8578ZM12.8578 32V33H13.8578V32H12.8578ZM12.6249 32V21.8182H10.6249V32H12.6249ZM11.6249 22.8182H17.73V20.8182H11.6249V22.8182ZM16.73 21.8182V22.9119H18.73V21.8182H16.73ZM17.73 21.9119H12.8578V23.9119H17.73V21.9119ZM11.8578 22.9119V26.3523H13.8578V22.9119H11.8578ZM12.8578 27.3523H17.2726V25.3523H12.8578V27.3523ZM16.2726 26.3523V27.446H18.2726V26.3523H16.2726ZM17.2726 26.446H12.8578V28.446H17.2726V26.446ZM11.8578 27.446V32H13.8578V27.446H11.8578ZM12.8578 31H11.6249V33H12.8578V31Z" fill="black" fill-opacity="0.25"/>
<path d="M0 0H2V48L0 49V0Z" fill="#45C761"/>
</svg>
