<svg width="28" height="49" viewBox="0 0 28 49" fill="none" xmlns="http://www.w3.org/2000/svg">
<path d="M0 0H28V49L14 41.5435L0 49V24.287V0Z" fill="#FFEF03"/>
<path d="M11.1805 32V21.8182H14.7402C15.4495 21.8182 16.0345 21.9408 16.4952 22.1861C16.9559 22.428 17.2989 22.7545 17.5243 23.1655C17.7497 23.5732 17.8624 24.0256 17.8624 24.5227C17.8624 24.9602 17.7845 25.3215 17.6287 25.6065C17.4762 25.8916 17.2741 26.117 17.0222 26.2827C16.7736 26.4484 16.5035 26.571 16.2118 26.6506V26.75C16.5233 26.7699 16.8366 26.8793 17.1514 27.0781C17.4663 27.277 17.7298 27.562 17.9419 27.9332C18.154 28.3045 18.2601 28.7585 18.2601 29.2955C18.2601 29.8059 18.1441 30.2649 17.9121 30.6726C17.6801 31.0803 17.3138 31.4034 16.8134 31.642C16.3129 31.8807 15.6616 32 14.8595 32H11.1805ZM12.4135 30.9062H14.8595C15.6649 30.9062 16.2366 30.7505 16.5747 30.4389C16.9161 30.1241 17.0868 29.7429 17.0868 29.2955C17.0868 28.9508 16.999 28.6326 16.8233 28.3409C16.6476 28.0459 16.3974 27.8106 16.0726 27.6349C15.7478 27.456 15.3633 27.3665 14.9192 27.3665H12.4135V30.9062ZM12.4135 26.2926H14.7004C15.0716 26.2926 15.4064 26.2197 15.7047 26.0739C16.0063 25.928 16.2449 25.7225 16.4206 25.4574C16.5996 25.1922 16.6891 24.8807 16.6891 24.5227C16.6891 24.0753 16.5333 23.6958 16.2217 23.3842C15.9102 23.0694 15.4163 22.9119 14.7402 22.9119H12.4135V26.2926Z" fill="black"/>
<path d="M11.1805 32H10.1805V33H11.1805V32ZM11.1805 21.8182V20.8182H10.1805V21.8182H11.1805ZM16.4952 22.1861L16.0252 23.0688L16.0302 23.0714L16.4952 22.1861ZM17.5243 23.1655L16.6475 23.6463L16.6491 23.6493L17.5243 23.1655ZM17.6287 25.6065L16.7512 25.1269L16.7469 25.1349L17.6287 25.6065ZM17.0222 26.2827L16.4725 25.4472L16.4675 25.4506L17.0222 26.2827ZM16.2118 26.6506L15.9487 25.6858L15.2118 25.8868V26.6506H16.2118ZM16.2118 26.75H15.2118V27.6882L16.1481 27.748L16.2118 26.75ZM17.1514 27.0781L16.6174 27.9236L16.6174 27.9236L17.1514 27.0781ZM17.9121 30.6726L18.7812 31.1672L18.7812 31.1672L17.9121 30.6726ZM16.8134 31.642L16.383 30.7394L16.383 30.7394L16.8134 31.642ZM12.4135 30.9062H11.4135V31.9062H12.4135V30.9062ZM16.5747 30.4389L17.2524 31.1743L17.2527 31.174L16.5747 30.4389ZM16.8233 28.3409L15.9641 28.8526L15.9667 28.8568L16.8233 28.3409ZM16.0726 27.6349L15.59 28.5108L15.5969 28.5145L16.0726 27.6349ZM12.4135 27.3665V26.3665H11.4135V27.3665H12.4135ZM12.4135 26.2926H11.4135V27.2926H12.4135V26.2926ZM15.7047 26.0739L15.2694 25.1736L15.2655 25.1755L15.7047 26.0739ZM16.4206 25.4574L15.5917 24.8979L15.5869 24.9051L16.4206 25.4574ZM16.2217 23.3842L15.5109 24.0876L15.5146 24.0913L16.2217 23.3842ZM12.4135 22.9119V21.9119H11.4135V22.9119H12.4135ZM12.1805 32V21.8182H10.1805V32H12.1805ZM11.1805 22.8182H14.7402V20.8182H11.1805V22.8182ZM14.7402 22.8182C15.3417 22.8182 15.7517 22.9232 16.0252 23.0688L16.9651 21.3034C16.3172 20.9584 15.5572 20.8182 14.7402 20.8182V22.8182ZM16.0302 23.0714C16.3368 23.2324 16.5269 23.4264 16.6475 23.6463L18.4011 22.6847C18.0709 22.0826 17.575 21.6237 16.9601 21.3007L16.0302 23.0714ZM16.6491 23.6493C16.7871 23.8989 16.8624 24.1831 16.8624 24.5227H18.8624C18.8624 23.8681 18.7122 23.2474 18.3995 22.6817L16.6491 23.6493ZM16.8624 24.5227C16.8624 24.8484 16.8035 25.0312 16.7512 25.127L18.5062 26.0861C18.7654 25.6118 18.8624 25.0721 18.8624 24.5227H16.8624ZM16.7469 25.1349C16.6673 25.2838 16.5751 25.3798 16.4725 25.4473L17.5718 27.1181C17.973 26.8541 18.2852 26.4994 18.5105 26.0782L16.7469 25.1349ZM16.4675 25.4506C16.3094 25.556 16.1379 25.6342 15.9487 25.6858L16.4749 27.6153C16.869 27.5078 17.2378 27.3408 17.5769 27.1147L16.4675 25.4506ZM15.2118 26.6506V26.75H17.2118V26.6506H15.2118ZM16.1481 27.748C16.2631 27.7553 16.4168 27.7969 16.6174 27.9236L17.6854 26.2326C17.2563 25.9616 16.7836 25.7845 16.2755 25.752L16.1481 27.748ZM16.6174 27.9236C16.7747 28.023 16.9306 28.179 17.0737 28.4294L18.8101 27.4371C18.529 26.945 18.1579 26.531 17.6854 26.2326L16.6174 27.9236ZM17.0737 28.4294C17.18 28.6155 17.2601 28.8887 17.2601 29.2955H19.2601C19.2601 28.6284 19.128 27.9934 18.8101 27.4371L17.0737 28.4294ZM17.2601 29.2955C17.2601 29.6482 17.1817 29.9341 17.043 30.178L18.7812 31.1672C19.1064 30.5957 19.2601 29.9636 19.2601 29.2955H17.2601ZM17.043 30.178C16.9294 30.3775 16.7333 30.5723 16.383 30.7394L17.2438 32.5447C17.8943 32.2345 18.4307 31.783 18.7812 31.1672L17.043 30.178ZM16.383 30.7394C16.0632 30.8919 15.5742 31 14.8595 31V33C15.749 33 16.5626 32.8695 17.2438 32.5447L16.383 30.7394ZM14.8595 31H11.1805V33H14.8595V31ZM12.4135 31.9062H14.8595V29.9062H12.4135V31.9062ZM14.8595 31.9062C15.7435 31.9062 16.6332 31.7449 17.2524 31.1743L15.897 29.7036C15.8401 29.756 15.5864 29.9062 14.8595 29.9062V31.9062ZM17.2527 31.174C17.7905 30.6779 18.0868 30.0339 18.0868 29.2955H16.0868C16.0868 29.4519 16.0417 29.5702 15.8967 29.7038L17.2527 31.174ZM18.0868 29.2955C18.0868 28.7713 17.9506 28.2744 17.6799 27.825L15.9667 28.8568C16.0473 28.9907 16.0868 29.1302 16.0868 29.2955H18.0868ZM17.6825 27.8293C17.4076 27.3676 17.0193 27.0101 16.5483 26.7553L15.5969 28.5145C15.7754 28.6111 15.8877 28.7243 15.9641 28.8526L17.6825 27.8293ZM16.5552 26.7591C16.0559 26.484 15.4988 26.3665 14.9192 26.3665V28.3665C15.2278 28.3665 15.4396 28.4279 15.59 28.5108L16.5552 26.7591ZM14.9192 26.3665H12.4135V28.3665H14.9192V26.3665ZM11.4135 27.3665V30.9062H13.4135V27.3665H11.4135ZM12.4135 27.2926H14.7004V25.2926H12.4135V27.2926ZM14.7004 27.2926C15.2057 27.2926 15.6934 27.1925 16.1439 26.9722L15.2655 25.1755C15.1193 25.2469 14.9375 25.2926 14.7004 25.2926V27.2926ZM16.14 26.9741C16.5942 26.7545 16.9741 26.4326 17.2542 26.0097L15.5869 24.9051C15.5158 25.0125 15.4184 25.1015 15.2694 25.1736L16.14 26.9741ZM17.2494 26.0169C17.553 25.5672 17.6891 25.0555 17.6891 24.5227H15.6891C15.6891 24.7059 15.6462 24.8173 15.5917 24.8979L17.2494 26.0169ZM17.6891 24.5227C17.6891 23.8147 17.4312 23.1795 16.9288 22.6771L15.5146 24.0913C15.6354 24.2121 15.6891 24.3359 15.6891 24.5227H17.6891ZM16.9326 22.6809C16.3543 22.0965 15.5452 21.9119 14.7402 21.9119V23.9119C15.2875 23.9119 15.4661 24.0423 15.5109 24.0876L16.9326 22.6809ZM14.7402 21.9119H12.4135V23.9119H14.7402V21.9119ZM11.4135 22.9119V26.2926H13.4135V22.9119H11.4135Z" fill="black" fill-opacity="0.25"/>
<path d="M0 0H2V48L0 49V0Z" fill="#EBDD0A"/>
</svg>
