<svg width="29" height="49" viewBox="0 0 29 49" fill="none" xmlns="http://www.w3.org/2000/svg">
<path d="M0 0H28V49L14 41.5435L0 49V24.287V0Z" fill="#5F82FF"/>
<path d="M7.68493 33V23.5455H13.354V24.5611H8.82981V27.7557H12.9292V28.7713H8.82981V33H7.68493ZM20.4853 25.9091C20.4299 25.4413 20.2052 25.0781 19.8113 24.8196C19.4173 24.5611 18.9341 24.4318 18.3617 24.4318C17.9431 24.4318 17.5769 24.4995 17.263 24.6349C16.9521 24.7704 16.709 24.9566 16.5336 25.1935C16.3612 25.4305 16.275 25.6998 16.275 26.0014C16.275 26.2538 16.335 26.4708 16.4551 26.6523C16.5782 26.8308 16.7351 26.9801 16.926 27.1001C17.1168 27.2171 17.3168 27.314 17.5261 27.391C17.7354 27.4648 17.9277 27.5249 18.1032 27.571L19.0634 27.8295C19.3096 27.8942 19.5835 27.9834 19.8851 28.0973C20.1898 28.2112 20.4806 28.3666 20.7576 28.5636C21.0377 28.7575 21.2685 29.0067 21.4501 29.3114C21.6317 29.6161 21.7225 29.9901 21.7225 30.4332C21.7225 30.9441 21.5886 31.4058 21.3208 31.8182C21.0562 32.2306 20.6684 32.5584 20.1575 32.8015C19.6497 33.0446 19.0326 33.1662 18.3063 33.1662C17.6292 33.1662 17.0429 33.0569 16.5474 32.8384C16.055 32.6199 15.6672 32.3152 15.3841 31.9244C15.104 31.5335 14.9455 31.0795 14.9086 30.5625H16.0904C16.1212 30.9195 16.2412 31.215 16.4505 31.4489C16.6628 31.6797 16.9306 31.852 17.2537 31.9659C17.58 32.0767 17.9308 32.1321 18.3063 32.1321C18.7433 32.1321 19.1357 32.0613 19.4835 31.9197C19.8313 31.7751 20.1067 31.575 20.3098 31.3196C20.513 31.0611 20.6145 30.7595 20.6145 30.4148C20.6145 30.1009 20.5268 29.8454 20.3514 29.6484C20.176 29.4515 19.9451 29.2914 19.6589 29.1683C19.3727 29.0452 19.0634 28.9375 18.731 28.8452L17.5676 28.5128C16.829 28.3004 16.2443 27.9973 15.8134 27.6033C15.3825 27.2094 15.1671 26.6939 15.1671 26.0568C15.1671 25.5275 15.3102 25.0658 15.5964 24.6719C15.8857 24.2749 16.2735 23.9671 16.7598 23.7486C17.2491 23.527 17.7954 23.4162 18.3986 23.4162C19.008 23.4162 19.5497 23.5254 20.0236 23.744C20.4976 23.9594 20.873 24.2549 21.15 24.6303C21.4301 25.0058 21.5778 25.4321 21.5932 25.9091H20.4853Z" fill="black"/>
<path d="M7.68493 33H6.68493V34H7.68493V33ZM7.68493 23.5455V22.5455H6.68493V23.5455H7.68493ZM13.354 23.5455H14.354V22.5455H13.354V23.5455ZM13.354 24.5611V25.5611H14.354V24.5611H13.354ZM8.82981 24.5611V23.5611H7.82981V24.5611H8.82981ZM8.82981 27.7557H7.82981V28.7557H8.82981V27.7557ZM12.9292 27.7557H13.9292V26.7557H12.9292V27.7557ZM12.9292 28.7713V29.7713H13.9292V28.7713H12.9292ZM8.82981 28.7713V27.7713H7.82981V28.7713H8.82981ZM8.82981 33V34H9.82981V33H8.82981ZM8.68493 33V23.5455H6.68493V33H8.68493ZM7.68493 24.5455H13.354V22.5455H7.68493V24.5455ZM12.354 23.5455V24.5611H14.354V23.5455H12.354ZM13.354 23.5611H8.82981V25.5611H13.354V23.5611ZM7.82981 24.5611V27.7557H9.82981V24.5611H7.82981ZM8.82981 28.7557H12.9292V26.7557H8.82981V28.7557ZM11.9292 27.7557V28.7713H13.9292V27.7557H11.9292ZM12.9292 27.7713H8.82981V29.7713H12.9292V27.7713ZM7.82981 28.7713V33H9.82981V28.7713H7.82981ZM8.82981 32H7.68493V34H8.82981V32ZM20.4853 25.9091L19.4922 26.0267L19.5967 26.9091H20.4853V25.9091ZM19.8113 24.8196L19.2626 25.6556L19.2626 25.6556L19.8113 24.8196ZM17.263 24.6349L16.8669 23.7167L16.8636 23.7182L17.263 24.6349ZM16.5336 25.1935L15.7298 24.5985L15.7248 24.6054L16.5336 25.1935ZM16.4551 26.6523L15.6209 27.2038L15.6263 27.212L15.6319 27.2201L16.4551 26.6523ZM16.926 27.1001L16.3935 27.9467L16.4034 27.9527L16.926 27.1001ZM17.5261 27.391L17.181 28.3296L17.1933 28.334L17.5261 27.391ZM18.1032 27.571L18.3631 26.6054L18.3577 26.6039L18.1032 27.571ZM19.0634 27.8295L18.8034 28.7952L18.8095 28.7968L19.0634 27.8295ZM19.8851 28.0973L19.5319 29.0328L19.535 29.034L19.8851 28.0973ZM20.7576 28.5636L20.1781 29.3786L20.1884 29.3858L20.7576 28.5636ZM21.4501 29.3114L22.3091 28.7995L22.3091 28.7995L21.4501 29.3114ZM21.3208 31.8182L20.4821 31.2736L20.4793 31.2781L21.3208 31.8182ZM20.1575 32.8015L19.7278 31.8985L19.7257 31.8995L20.1575 32.8015ZM16.5474 32.8384L16.1418 33.7525L16.1439 33.7534L16.5474 32.8384ZM15.3841 31.9244L14.5712 32.5068L14.5742 32.511L15.3841 31.9244ZM14.9086 30.5625V29.5625H13.8346L13.9111 30.6337L14.9086 30.5625ZM16.0904 30.5625L17.0867 30.4766L17.0079 29.5625H16.0904V30.5625ZM16.4505 31.4489L15.7051 32.1157L15.7145 32.1259L16.4505 31.4489ZM17.2537 31.9659L16.9214 32.9091L16.9321 32.9128L17.2537 31.9659ZM19.4835 31.9197L19.8605 32.846L19.8675 32.8431L19.4835 31.9197ZM20.3098 31.3196L21.0926 31.942L21.0962 31.9374L20.3098 31.3196ZM20.3514 29.6484L21.0982 28.9833L21.0982 28.9833L20.3514 29.6484ZM19.6589 29.1683L19.2638 30.087L19.2638 30.087L19.6589 29.1683ZM18.731 28.8452L18.4563 29.8067L18.4634 29.8087L18.731 28.8452ZM17.5676 28.5128L17.2913 29.4739L17.2929 29.4743L17.5676 28.5128ZM15.8134 27.6033L15.1386 28.3414L15.1386 28.3414L15.8134 27.6033ZM15.5964 24.6719L14.7882 24.083L14.7874 24.0841L15.5964 24.6719ZM16.7598 23.7486L17.1697 24.6607L17.1723 24.6595L16.7598 23.7486ZM20.0236 23.744L19.6049 24.6521L19.6098 24.6543L20.0236 23.744ZM21.15 24.6303L20.3453 25.224L20.3485 25.2282L21.15 24.6303ZM21.5932 25.9091V26.9091H22.626L22.5927 25.8768L21.5932 25.9091ZM21.4783 25.7915C21.3882 25.0302 21.0008 24.4041 20.3599 23.9836L19.2626 25.6556C19.4096 25.7521 19.4716 25.8523 19.4922 26.0267L21.4783 25.7915ZM20.3599 23.9836C19.7709 23.597 19.0868 23.4318 18.3617 23.4318V25.4318C18.7815 25.4318 19.0637 25.5251 19.2626 25.6556L20.3599 23.9836ZM18.3617 23.4318C17.8367 23.4318 17.3306 23.5167 16.8669 23.7167L17.6591 25.5532C17.8232 25.4824 18.0496 25.4318 18.3617 25.4318V23.4318ZM16.8636 23.7182C16.4165 23.9129 16.0243 24.2008 15.7298 24.5986L17.3373 25.7885C17.3937 25.7123 17.4877 25.6278 17.6624 25.5517L16.8636 23.7182ZM15.7248 24.6054C15.4243 25.0185 15.275 25.4951 15.275 26.0014H17.275C17.275 25.9045 17.2981 25.8425 17.3423 25.7817L15.7248 24.6054ZM15.275 26.0014C15.275 26.4178 15.3763 26.8338 15.6209 27.2038L17.2893 26.1009C17.2891 26.1007 17.2869 26.0977 17.2839 26.0868C17.2806 26.0749 17.275 26.0482 17.275 26.0014H15.275ZM15.6319 27.2201C15.835 27.5147 16.0925 27.7573 16.3935 27.9466L17.4584 26.2537C17.3778 26.203 17.3213 26.147 17.2783 26.0846L15.6319 27.2201ZM16.4034 27.9527C16.6502 28.104 16.9097 28.2298 17.181 28.3296L17.8712 26.4524C17.724 26.3983 17.5834 26.3302 17.4485 26.2475L16.4034 27.9527ZM17.1933 28.334C17.4229 28.415 17.6418 28.4836 17.8487 28.5381L18.3577 26.6039C18.2137 26.5661 18.0479 26.5147 17.8589 26.448L17.1933 28.334ZM17.8432 28.5366L18.8034 28.7952L19.3234 26.8639L18.3631 26.6054L17.8432 28.5366ZM18.8095 28.7968C19.0146 28.8506 19.2547 28.9282 19.5319 29.0328L20.2383 27.1618C19.9123 27.0387 19.6046 26.9377 19.3173 26.8623L18.8095 28.7968ZM19.535 29.034C19.7547 29.1161 19.9688 29.2297 20.1781 29.3785L21.3372 27.7486C20.9925 27.5035 20.6249 27.3062 20.2352 27.1606L19.535 29.034ZM20.1884 29.3858C20.3459 29.4948 20.4797 29.6365 20.5911 29.8234L22.3091 28.7995C22.0574 28.377 21.7295 28.0201 21.3268 27.7414L20.1884 29.3858ZM20.5911 29.8234C20.66 29.939 20.7225 30.1257 20.7225 30.4332H22.7225C22.7225 29.8544 22.6034 29.2933 22.3091 28.7995L20.5911 29.8234ZM20.7225 30.4332C20.7225 30.7588 20.6404 31.0299 20.4821 31.2736L22.1596 32.3627C22.5368 31.7817 22.7225 31.1295 22.7225 30.4332H20.7225ZM20.4793 31.2781C20.3301 31.5104 20.0968 31.7229 19.7278 31.8985L20.5872 33.7045C21.24 33.3938 21.7822 32.9507 22.1624 32.3583L20.4793 31.2781ZM19.7257 31.8995C19.3859 32.0622 18.9249 32.1662 18.3063 32.1662V34.1662C19.1403 34.1662 19.9135 34.027 20.5893 33.7034L19.7257 31.8995ZM18.3063 32.1662C17.7344 32.1662 17.2917 32.0737 16.9509 31.9234L16.1439 33.7534C16.7941 34.0401 17.524 34.1662 18.3063 34.1662V32.1662ZM16.953 31.9244C16.6027 31.7689 16.3619 31.5696 16.1939 31.3377L14.5742 32.511C14.9725 33.0608 15.5073 33.4709 16.1418 33.7525L16.953 31.9244ZM16.1969 31.3419C16.0328 31.1129 15.9309 30.8391 15.906 30.4913L13.9111 30.6337C13.9601 31.32 14.1752 31.9541 14.5712 32.5068L16.1969 31.3419ZM14.9086 31.5625H16.0904V29.5625H14.9086V31.5625ZM15.0941 30.6484C15.1407 31.1892 15.3316 31.6981 15.7052 32.1157L17.1957 30.7821C17.1508 30.7319 17.1016 30.6498 17.0867 30.4766L15.0941 30.6484ZM15.7145 32.1259C16.0476 32.488 16.4585 32.746 16.9214 32.9091L17.5861 31.0228C17.4026 30.9581 17.278 30.8714 17.1864 30.7718L15.7145 32.1259ZM16.9321 32.9128C17.3708 33.0618 17.8312 33.1321 18.3063 33.1321V31.1321C18.0304 31.1321 17.7891 31.0916 17.5753 31.019L16.9321 32.9128ZM18.3063 33.1321C18.8517 33.1321 19.3751 33.0436 19.8605 32.8459L19.1065 30.9935C18.8964 31.0791 18.6349 31.1321 18.3063 31.1321V33.1321ZM19.8675 32.8431C20.3472 32.6435 20.7689 32.349 21.0925 31.942L19.5271 30.6972C19.4445 30.8011 19.3153 30.9066 19.0995 30.9964L19.8675 32.8431ZM21.0962 31.9374C21.4448 31.4938 21.6145 30.9719 21.6145 30.4148H19.6145C19.6145 30.5471 19.5812 30.6284 19.5235 30.7018L21.0962 31.9374ZM21.6145 30.4148C21.6145 29.9048 21.4667 29.3971 21.0982 28.9833L19.6046 30.3135C19.6019 30.3105 19.6011 30.3072 19.6029 30.3125C19.6056 30.3203 19.6145 30.3507 19.6145 30.4148H21.6145ZM21.0982 28.9833C20.8094 28.6591 20.4505 28.4202 20.054 28.2497L19.2638 30.087C19.4398 30.1626 19.5425 30.2438 19.6046 30.3135L21.0982 28.9833ZM20.054 28.2497C19.7223 28.107 19.3699 27.9848 18.9986 27.8817L18.4634 29.8087C18.7568 29.8902 19.0231 29.9834 19.2638 30.087L20.054 28.2497ZM19.0057 27.8836L17.8424 27.5513L17.2929 29.4743L18.4563 29.8067L19.0057 27.8836ZM17.844 27.5517C17.2085 27.369 16.775 27.1276 16.4882 26.8653L15.1386 28.3414C15.7135 28.867 16.4495 29.2318 17.2913 29.4739L17.844 27.5517ZM16.4882 26.8653C16.2847 26.6793 16.1671 26.4418 16.1671 26.0568H14.1671C14.1671 26.946 14.4803 27.7395 15.1386 28.3414L16.4882 26.8653ZM16.1671 26.0568C16.1671 25.7192 16.2543 25.4677 16.4054 25.2597L14.7874 24.0841C14.3661 24.6639 14.1671 25.3357 14.1671 26.0568H16.1671ZM16.4046 25.2608C16.5829 25.0162 16.8281 24.8142 17.1697 24.6607L16.3499 22.8364C15.7189 23.12 15.1886 23.5336 14.7882 24.083L16.4046 25.2608ZM17.1723 24.6595C17.5169 24.5035 17.9201 24.4162 18.3986 24.4162V22.4162C17.6707 22.4162 16.9813 22.5505 16.3473 22.8376L17.1723 24.6595ZM18.3986 24.4162C18.8875 24.4162 19.2825 24.5034 19.6049 24.6521L20.4423 22.8358C19.8168 22.5475 19.1285 22.4162 18.3986 22.4162V24.4162ZM19.6098 24.6543C19.9469 24.8076 20.1808 25.001 20.3453 25.224L21.9548 24.0367C21.5653 23.5087 21.0482 23.1112 20.4374 22.8336L19.6098 24.6543ZM20.3485 25.2282C20.5038 25.4365 20.5848 25.6645 20.5937 25.9413L22.5927 25.8768C22.5709 25.1996 22.3564 24.5751 21.9516 24.0324L20.3485 25.2282ZM21.5932 24.9091H20.4853V26.9091H21.5932V24.9091Z" fill="black" fill-opacity="0.25"/>
<path d="M0 0H2V48L0 49V0Z" fill="#506DD7"/>
</svg>
