<svg xmlns="http://www.w3.org/2000/svg" xmlns:xlink="http://www.w3.org/1999/xlink" version="1.1" x="0px" y="0px" viewBox="0 0 100 100" enable-background="new 0 0 100 100" xml:space="preserve">
<path fill="#FFFFFF" d="M50,78.3c1.1,0,2-0.9,2-2V53.6l6.6,6.6c0.4,0.4,0.9,0.6,1.4,0.6s1-0.2,1.4-0.6c0.8-0.8,0.8-2,0-2.8l-10-10  c-0.8-0.8-2-0.8-2.8,0l-10,10c-0.8,0.8-0.8,2,0,2.8c0.4,0.4,0.9,0.6,1.4,0.6s1-0.2,1.4-0.6l6.6-6.6v22.7C48,77.4,48.9,78.3,50,78.3z  "/>
<path fill="#FFFFFF" d="M71.9,36.9C71,25.6,61.5,16.8,50,16.8c-12.1,0-22,9.9-22,22c0,1,0.1,2,0.2,3c-0.2,0-0.5,0-0.7,0  c-8,0-14.5,6.5-14.5,14.5s6.5,14.5,14.5,14.5H40c1.1,0,2-0.9,2-2s-0.9-2-2-2H27.5c-5.8,0-10.5-4.7-10.5-10.5s4.7-10.5,10.5-10.5  c0.9,0,1.8,0.1,2.7,0.4c0.7,0.2,1.4,0,1.9-0.5c0.5-0.5,0.7-1.3,0.5-2c-0.5-1.6-0.7-3.3-0.7-4.9c0-9.9,8.1-18,18-18s18,8.1,18,18  c0,1.1,0.9,2,2,2c7.2,0,13,5.8,13,13s-5.8,13-13,13H60c-1.1,0-2,0.9-2,2s0.9,2,2,2h10c9.4,0,17-7.6,17-17  C87,45.1,80.4,37.9,71.9,36.9z"/>
</svg>